<?xml version="1.0" encoding="utf-8"?>
<!-- Generator: Adobe Illustrator 22.1.0, SVG Export Plug-In . SVG Version: 6.00 Build 0)  -->
<svg version="1.1" id="Layer_1" xmlns="http://www.w3.org/2000/svg" xmlns:xlink="http://www.w3.org/1999/xlink" x="0px" y="0px"
	 viewBox="0 0 555 430" style="enable-background:new 0 0 555 430;" xml:space="preserve">
<style type="text/css">
	.st0{fill:#20395C;}
	.st1{fill:#BD479A;}
	.st2{fill:none;stroke:#FFFFFF;stroke-width:1.9243;stroke-linecap:round;stroke-linejoin:round;stroke-miterlimit:10;}
	.st3{fill:#62C0C1;}
	.st4{fill:none;stroke:#FFFFFF;stroke-width:1.9456;stroke-linecap:round;stroke-linejoin:round;stroke-miterlimit:10;}
	.st5{fill:none;stroke:#20395C;stroke-linecap:round;stroke-linejoin:round;stroke-miterlimit:10;}
</style>
<g>
	<path class="st0" d="M131.1,43.6c0.3,0.2,0.4,0.5,0.4,0.9c0,0.1,0,0.3-0.1,0.4l-5,14.5c-0.1,0.2-0.2,0.4-0.4,0.5
		c-0.2,0.1-0.4,0.2-0.6,0.2s-0.4-0.1-0.6-0.2c-0.2-0.1-0.4-0.3-0.5-0.6l-3.7-8.8l-3.7,8.8c-0.1,0.2-0.2,0.4-0.5,0.6
		c-0.2,0.1-0.4,0.2-0.7,0.2c-0.2,0-0.4-0.1-0.6-0.2c-0.2-0.1-0.3-0.3-0.4-0.5l-5-14.5c0-0.1-0.1-0.3-0.1-0.4c0-0.4,0.1-0.6,0.4-0.9
		c0.3-0.2,0.5-0.3,0.9-0.3c0.3,0,0.5,0.1,0.7,0.2c0.2,0.1,0.3,0.3,0.4,0.5l4.1,12l3.5-8.5c0.1-0.2,0.2-0.4,0.4-0.5
		c0.2-0.1,0.4-0.2,0.6-0.2s0.5,0.1,0.6,0.2s0.3,0.3,0.4,0.5L125,56l4-12c0.1-0.2,0.2-0.4,0.4-0.6c0.2-0.1,0.4-0.2,0.7-0.2
		C130.6,43.3,130.8,43.4,131.1,43.6z"/>
	<path class="st0" d="M144.2,52.6V59c0,0.3-0.1,0.6-0.3,0.8s-0.5,0.3-0.8,0.3s-0.6-0.1-0.8-0.3S142,59.3,142,59v-6.4
		c0-2.1-0.9-3.1-2.6-3.1c-0.9,0-1.7,0.3-2.4,0.9c-0.6,0.6-0.9,1.3-0.9,2.2V59c0,0.3-0.1,0.6-0.3,0.8s-0.5,0.3-0.8,0.3
		s-0.6-0.1-0.8-0.3s-0.3-0.5-0.3-0.8V43.6c0-0.3,0.1-0.6,0.3-0.8s0.5-0.3,0.8-0.3s0.6,0.1,0.8,0.3s0.3,0.5,0.3,0.8v6.1
		c0.4-0.6,1-1.2,1.7-1.6c0.7-0.4,1.5-0.7,2.3-0.7C142.8,47.4,144.2,49.1,144.2,52.6z"/>
	<path class="st0" d="M158.6,47.7c0.2,0.2,0.3,0.5,0.3,0.9V59c0,0.3-0.1,0.6-0.3,0.8s-0.5,0.3-0.8,0.3s-0.6-0.1-0.8-0.3
		s-0.3-0.5-0.3-0.8v-0.6c-0.4,0.6-1,1-1.7,1.4s-1.5,0.6-2.3,0.6c-1.1,0-2.1-0.3-3-0.8c-0.9-0.6-1.6-1.3-2.1-2.3s-0.8-2.1-0.8-3.4
		s0.3-2.4,0.8-3.4s1.2-1.8,2.1-2.3c0.9-0.6,1.8-0.8,2.9-0.8c0.8,0,1.6,0.2,2.4,0.5c0.7,0.4,1.3,0.8,1.7,1.3v-0.6
		c0-0.3,0.1-0.6,0.3-0.8s0.5-0.3,0.8-0.3C158.1,47.4,158.4,47.5,158.6,47.7z M154.9,57.7c0.6-0.4,1-0.9,1.4-1.6
		c0.3-0.7,0.5-1.4,0.5-2.3c0-0.8-0.2-1.6-0.5-2.3s-0.8-1.2-1.4-1.6c-0.6-0.4-1.3-0.6-2-0.6s-1.4,0.2-2,0.6c-0.6,0.4-1,0.9-1.4,1.6
		c-0.3,0.7-0.5,1.4-0.5,2.3c0,0.8,0.2,1.6,0.5,2.3s0.8,1.2,1.4,1.6c0.6,0.4,1.3,0.6,2,0.6S154.3,58.1,154.9,57.7z"/>
	<path class="st0" d="M165.7,49.8V57c0,0.8,0.4,1.2,1.1,1.2c0.1,0,0.3,0,0.5-0.1s0.3-0.1,0.5-0.1s0.4,0.1,0.5,0.3s0.2,0.4,0.2,0.7
		s-0.2,0.6-0.6,0.9c-0.4,0.2-0.8,0.4-1.3,0.4s-1-0.1-1.5-0.2c-0.4-0.1-0.8-0.4-1.2-0.9c-0.3-0.5-0.5-1.1-0.5-2.1v-7.2H162
		c-0.3,0-0.6-0.1-0.8-0.3s-0.3-0.5-0.3-0.8s0.1-0.6,0.3-0.7c0.2-0.2,0.5-0.3,0.8-0.3h1.4v-2c0-0.3,0.1-0.6,0.3-0.8s0.5-0.3,0.8-0.3
		s0.6,0.1,0.8,0.3s0.3,0.5,0.3,0.8v2h2c0.3,0,0.6,0.1,0.8,0.3s0.3,0.5,0.3,0.8s-0.1,0.6-0.3,0.7c-0.2,0.2-0.5,0.3-0.8,0.3h-1.9V49.8
		z"/>
	<path class="st0" d="M174,46.7c-0.3,0.5-0.6,1-1,1.3c-0.4,0.4-0.8,0.5-1.2,0.5c-0.6,0-0.9-0.3-0.9-0.8c0-0.2,0.1-0.4,0.2-0.4
		c0.1-0.1,0.2-0.2,0.4-0.2s0.3-0.1,0.4-0.1c0.4-0.3,0.7-0.6,0.7-1.1c0-0.2-0.1-0.3-0.2-0.4c-0.1-0.1-0.3-0.2-0.5-0.2
		c-0.3,0-0.5,0.1-0.7,0.2c-0.2-0.1-0.3-0.2-0.4-0.3c-0.1-0.1-0.1-0.3-0.1-0.5c0-0.4,0.2-0.7,0.6-1c0.4-0.3,0.8-0.4,1.3-0.4
		c0.6,0,1,0.2,1.4,0.6c0.3,0.4,0.5,0.9,0.5,1.6C174.3,45.7,174.2,46.2,174,46.7z"/>
	<path class="st0" d="M176.3,57.5c0-0.3,0.2-0.6,0.5-0.8c0.2-0.1,0.3-0.2,0.6-0.2s0.6,0.1,0.8,0.4c0.5,0.5,1,1,1.5,1.2
		c0.6,0.3,1.2,0.4,2,0.4c0.6,0,1.1-0.2,1.6-0.4c0.5-0.3,0.7-0.7,0.7-1.3c0-0.5-0.2-1-0.7-1.2c-0.5-0.3-1.2-0.6-2.1-0.8
		c-0.9-0.2-1.6-0.5-2.2-0.8c-0.6-0.3-1.1-0.6-1.5-1.2c-0.4-0.5-0.6-1.2-0.6-2c0-0.7,0.2-1.4,0.6-1.9c0.4-0.5,1-1,1.6-1.3
		c0.7-0.3,1.4-0.5,2.2-0.5s1.5,0.1,2.3,0.4c0.8,0.3,1.4,0.7,1.9,1.3c0.2,0.2,0.3,0.5,0.3,0.7c0,0.3-0.1,0.5-0.4,0.7
		c-0.2,0.1-0.4,0.2-0.6,0.2c-0.3,0-0.5-0.1-0.7-0.3c-0.3-0.4-0.7-0.7-1.2-0.9s-1-0.3-1.6-0.3s-1.1,0.1-1.5,0.4
		c-0.4,0.2-0.6,0.7-0.6,1.3s0.3,1,0.7,1.2c0.5,0.3,1.2,0.5,2.2,0.8c0.8,0.2,1.6,0.5,2.1,0.7s1,0.6,1.4,1.1s0.6,1.2,0.6,2
		s-0.2,1.4-0.6,2c-0.4,0.6-1,1-1.7,1.3s-1.4,0.4-2.2,0.4c-1,0-1.9-0.2-2.8-0.5c-0.9-0.4-1.6-0.9-2.2-1.7
		C176.4,58,176.3,57.8,176.3,57.5z"/>
	<path class="st0" d="M195.3,45.6c-0.2-0.2-0.3-0.4-0.3-0.8v-0.4c0-0.4,0.1-0.7,0.3-0.8c0.2-0.2,0.5-0.2,1-0.2s0.8,0.1,1,0.3
		s0.3,0.4,0.3,0.8v0.4c0,0.4-0.1,0.7-0.3,0.8c-0.2,0.2-0.5,0.2-1,0.2C195.9,45.9,195.5,45.8,195.3,45.6z M197.2,59.8
		c-0.2,0.2-0.5,0.3-0.8,0.3s-0.6-0.1-0.8-0.3s-0.3-0.5-0.3-0.8V48.6c0-0.3,0.1-0.6,0.3-0.8s0.5-0.3,0.8-0.3s0.6,0.1,0.8,0.3
		s0.3,0.5,0.3,0.8V59C197.5,59.3,197.4,59.6,197.2,59.8z"/>
	<path class="st0" d="M211.5,52.5V59c0,0.3-0.1,0.6-0.3,0.8s-0.5,0.3-0.8,0.3s-0.6-0.1-0.8-0.3s-0.3-0.5-0.3-0.8v-6.5
		c0-0.9-0.2-1.7-0.6-2.3c-0.4-0.6-1.1-0.8-2.1-0.8c-0.6,0-1.2,0.1-1.7,0.4c-0.5,0.3-0.9,0.7-1.2,1.1c-0.3,0.5-0.4,1-0.4,1.5V59
		c0,0.3-0.1,0.6-0.3,0.8s-0.5,0.3-0.8,0.3s-0.6-0.1-0.8-0.3s-0.3-0.5-0.3-0.8V48.7c0-0.3,0.1-0.6,0.3-0.8s0.5-0.3,0.8-0.3
		s0.6,0.1,0.8,0.3s0.3,0.5,0.3,0.8v0.8c0.4-0.6,1-1.2,1.7-1.6c0.7-0.4,1.5-0.7,2.4-0.7C210.1,47.3,211.5,49,211.5,52.5z"/>
	<path class="st0" d="M223.5,47.9c0.8,0.4,1.3,0.9,1.3,1.5c0,0.3-0.1,0.5-0.3,0.7s-0.4,0.3-0.7,0.3c-0.2,0-0.4,0-0.5-0.1
		s-0.3-0.2-0.5-0.3c-0.1-0.1-0.2-0.2-0.5-0.3c-0.2-0.1-0.5-0.2-0.8-0.2s-0.7-0.1-1-0.1c-0.8,0-1.6,0.2-2.2,0.6
		c-0.6,0.4-1.1,0.9-1.5,1.6c-0.4,0.7-0.5,1.4-0.5,2.3c0,0.8,0.2,1.6,0.5,2.3s0.8,1.2,1.5,1.6c0.6,0.4,1.3,0.6,2.1,0.6s1.5-0.1,2-0.4
		c0.1-0.1,0.3-0.2,0.5-0.3s0.3-0.2,0.4-0.3s0.3-0.1,0.4-0.1c0.3,0,0.6,0.1,0.8,0.3s0.3,0.5,0.3,0.8s-0.2,0.7-0.6,1
		c-0.4,0.3-1,0.6-1.7,0.8s-1.5,0.3-2.3,0.3c-1.2,0-2.3-0.3-3.2-0.9s-1.6-1.4-2.1-2.4s-0.8-2.1-0.8-3.3s0.3-2.3,0.8-3.3
		s1.3-1.8,2.2-2.4c0.9-0.6,2-0.9,3.2-0.9C221.7,47.3,222.7,47.5,223.5,47.9z"/>
	<path class="st0" d="M229.4,59.8c-0.2,0.2-0.5,0.3-0.8,0.3s-0.6-0.1-0.8-0.3s-0.3-0.5-0.3-0.8V43.6c0-0.3,0.1-0.6,0.3-0.8
		s0.5-0.3,0.8-0.3s0.6,0.1,0.8,0.3s0.3,0.5,0.3,0.8V59C229.7,59.3,229.6,59.6,229.4,59.8z"/>
	<path class="st0" d="M243.4,47.9c0.2,0.2,0.3,0.5,0.3,0.8v6.4c0,1.7-0.5,3-1.4,3.9s-2.2,1.4-3.9,1.4s-3-0.5-3.9-1.4
		s-1.4-2.2-1.4-3.9v-6.4c0-0.3,0.1-0.6,0.3-0.8s0.5-0.3,0.8-0.3s0.6,0.1,0.8,0.3s0.3,0.5,0.3,0.8v6.4c0,2.1,1,3.1,3,3.1
		c1,0,1.7-0.3,2.2-0.8s0.8-1.3,0.8-2.4v-6.4c0-0.3,0.1-0.6,0.3-0.8s0.5-0.3,0.8-0.3C242.9,47.6,243.2,47.7,243.4,47.9z"/>
	<path class="st0" d="M258.2,42.7c0.2,0.2,0.3,0.5,0.3,0.8V59c0,0.3-0.1,0.6-0.3,0.8c-0.2,0.2-0.5,0.3-0.8,0.3s-0.6-0.1-0.8-0.3
		c-0.2-0.2-0.3-0.5-0.3-0.8v-0.7c-0.4,0.6-1,1.1-1.7,1.5s-1.5,0.6-2.3,0.6c-1.1,0-2.1-0.3-3-0.8c-0.9-0.6-1.6-1.3-2.1-2.3
		s-0.8-2.1-0.8-3.4s0.3-2.4,0.8-3.4s1.2-1.8,2.1-2.3c0.9-0.6,1.8-0.8,2.9-0.8c0.8,0,1.6,0.2,2.4,0.5c0.7,0.4,1.3,0.8,1.8,1.4v-5.6
		c0-0.3,0.1-0.6,0.3-0.8s0.5-0.3,0.8-0.3C257.7,42.4,257.9,42.5,258.2,42.7z M254.4,57.7c0.6-0.4,1-0.9,1.4-1.6
		c0.3-0.7,0.5-1.4,0.5-2.3c0-0.8-0.2-1.6-0.5-2.3c-0.3-0.7-0.8-1.2-1.4-1.6c-0.6-0.4-1.3-0.6-2-0.6s-1.4,0.2-2,0.6
		c-0.6,0.4-1,0.9-1.4,1.6c-0.3,0.7-0.5,1.4-0.5,2.3c0,0.8,0.2,1.6,0.5,2.3s0.8,1.2,1.4,1.6c0.6,0.4,1.3,0.6,2,0.6
		S253.9,58.1,254.4,57.7z"/>
	<path class="st0" d="M272.5,54.1c-0.2,0.2-0.5,0.3-0.8,0.3h-8.4c0.1,1.2,0.6,2.1,1.3,2.8c0.8,0.7,1.7,1.1,2.8,1.1
		c0.8,0,1.4-0.1,1.9-0.3s0.9-0.5,1.3-0.9c0.2-0.1,0.5-0.2,0.7-0.2c0.3,0,0.5,0.1,0.7,0.3s0.3,0.4,0.3,0.7s-0.2,0.6-0.5,0.9
		c-0.5,0.5-1.1,0.9-1.8,1.2c-0.8,0.3-1.6,0.5-2.4,0.5c-1.3,0-2.4-0.3-3.4-0.8s-1.7-1.3-2.3-2.3c-0.5-1-0.8-2.1-0.8-3.3
		c0-1.3,0.3-2.5,0.8-3.5c0.6-1,1.3-1.8,2.2-2.3c0.9-0.5,1.9-0.8,2.9-0.8s2,0.3,2.9,0.8s1.6,1.3,2.2,2.2c0.5,0.9,0.8,2,0.8,3.1
		C272.9,53.7,272.8,53.9,272.5,54.1z M264.7,50.2c-0.7,0.5-1.1,1.3-1.3,2.3h7.1v-0.2c-0.1-0.8-0.5-1.5-1.1-2.1
		c-0.7-0.5-1.5-0.8-2.3-0.8C266.1,49.4,265.4,49.7,264.7,50.2z"/>
	<path class="st0" d="M286.6,42.7c0.2,0.2,0.3,0.5,0.3,0.8V59c0,0.3-0.1,0.6-0.3,0.8c-0.2,0.2-0.5,0.3-0.8,0.3s-0.6-0.1-0.8-0.3
		c-0.2-0.2-0.3-0.5-0.3-0.8v-0.7c-0.4,0.6-1,1.1-1.7,1.5s-1.5,0.6-2.3,0.6c-1.1,0-2.1-0.3-3-0.8c-0.9-0.6-1.6-1.3-2.1-2.3
		s-0.8-2.1-0.8-3.4s0.3-2.4,0.8-3.4s1.2-1.8,2.1-2.3s1.8-0.8,2.9-0.8c0.8,0,1.6,0.2,2.4,0.5c0.7,0.4,1.3,0.8,1.8,1.4v-5.6
		c0-0.3,0.1-0.6,0.3-0.8s0.5-0.3,0.8-0.3S286.4,42.5,286.6,42.7z M282.9,57.7c0.6-0.4,1-0.9,1.4-1.6c0.3-0.7,0.5-1.4,0.5-2.3
		c0-0.8-0.2-1.6-0.5-2.3s-0.8-1.2-1.4-1.6c-0.6-0.4-1.3-0.6-2-0.6s-1.4,0.2-2,0.6c-0.6,0.4-1,0.9-1.4,1.6c-0.3,0.7-0.5,1.4-0.5,2.3
		c0,0.8,0.2,1.6,0.5,2.3s0.8,1.2,1.4,1.6c0.6,0.4,1.3,0.6,2,0.6S282.3,58.1,282.9,57.7z"/>
	<path class="st0" d="M296.9,45.6c-0.2-0.2-0.3-0.4-0.3-0.8v-0.4c0-0.4,0.1-0.7,0.3-0.8c0.2-0.2,0.5-0.2,1-0.2c0.4,0,0.8,0.1,1,0.3
		s0.3,0.4,0.3,0.8v0.4c0,0.4-0.1,0.7-0.3,0.8c-0.2,0.2-0.5,0.2-1,0.2C297.5,45.9,297.1,45.8,296.9,45.6z M298.8,59.8
		c-0.2,0.2-0.5,0.3-0.8,0.3s-0.6-0.1-0.8-0.3s-0.3-0.5-0.3-0.8V48.6c0-0.3,0.1-0.6,0.3-0.8s0.5-0.3,0.8-0.3s0.6,0.1,0.8,0.3
		s0.3,0.5,0.3,0.8V59C299.1,59.3,299,59.6,298.8,59.8z"/>
	<path class="st0" d="M313.1,52.5V59c0,0.3-0.1,0.6-0.3,0.8c-0.2,0.2-0.5,0.3-0.8,0.3s-0.6-0.1-0.8-0.3c-0.2-0.2-0.3-0.5-0.3-0.8
		v-6.5c0-0.9-0.2-1.7-0.6-2.3s-1.1-0.8-2.1-0.8c-0.6,0-1.2,0.1-1.7,0.4c-0.5,0.3-0.9,0.7-1.2,1.1c-0.3,0.5-0.4,1-0.4,1.5V59
		c0,0.3-0.1,0.6-0.3,0.8s-0.5,0.3-0.8,0.3s-0.6-0.1-0.8-0.3c-0.2-0.2-0.3-0.5-0.3-0.8V48.7c0-0.3,0.1-0.6,0.3-0.8
		c0.2-0.2,0.5-0.3,0.8-0.3s0.6,0.1,0.8,0.3c0.2,0.2,0.3,0.5,0.3,0.8v0.8c0.4-0.6,1-1.2,1.7-1.6c0.7-0.4,1.5-0.7,2.4-0.7
		C311.7,47.3,313.1,49,313.1,52.5z"/>
	<path class="st0" d="M334.2,47.7c0.2,0.2,0.3,0.5,0.3,0.9V59c0,0.3-0.1,0.6-0.3,0.8c-0.2,0.2-0.5,0.3-0.8,0.3s-0.6-0.1-0.8-0.3
		c-0.2-0.2-0.3-0.5-0.3-0.8v-0.6c-0.4,0.6-1,1-1.7,1.4s-1.5,0.6-2.3,0.6c-1.1,0-2.1-0.3-3-0.8c-0.9-0.6-1.6-1.3-2.1-2.3
		s-0.8-2.1-0.8-3.4s0.3-2.4,0.8-3.4s1.2-1.8,2.1-2.3s1.8-0.8,2.9-0.8c0.8,0,1.6,0.2,2.4,0.5c0.7,0.4,1.3,0.8,1.7,1.3v-0.6
		c0-0.3,0.1-0.6,0.3-0.8c0.2-0.2,0.5-0.3,0.8-0.3S334,47.5,334.2,47.7z M330.5,57.7c0.6-0.4,1-0.9,1.4-1.6c0.3-0.7,0.5-1.4,0.5-2.3
		c0-0.8-0.2-1.6-0.5-2.3s-0.8-1.2-1.4-1.6c-0.6-0.4-1.3-0.6-2-0.6s-1.4,0.2-2,0.6c-0.6,0.4-1,0.9-1.4,1.6c-0.3,0.7-0.5,1.4-0.5,2.3
		c0,0.8,0.2,1.6,0.5,2.3s0.8,1.2,1.4,1.6c0.6,0.4,1.3,0.6,2,0.6S329.9,58.1,330.5,57.7z"/>
	<path class="st0" d="M343.6,57.5c0-0.3,0.2-0.6,0.5-0.8c0.2-0.1,0.3-0.2,0.6-0.2c0.3,0,0.6,0.1,0.8,0.4c0.5,0.5,1,1,1.5,1.2
		c0.6,0.3,1.2,0.4,2,0.4c0.6,0,1.1-0.2,1.6-0.4c0.5-0.3,0.7-0.7,0.7-1.3c0-0.5-0.2-1-0.7-1.2c-0.5-0.3-1.2-0.6-2.1-0.8
		s-1.6-0.5-2.2-0.8s-1.1-0.6-1.5-1.2c-0.4-0.5-0.6-1.2-0.6-2c0-0.7,0.2-1.4,0.6-1.9s1-1,1.6-1.3c0.7-0.3,1.4-0.5,2.2-0.5
		c0.8,0,1.5,0.1,2.3,0.4c0.8,0.3,1.4,0.7,1.9,1.3c0.2,0.2,0.3,0.5,0.3,0.7c0,0.3-0.1,0.5-0.4,0.7c-0.2,0.1-0.4,0.2-0.6,0.2
		c-0.3,0-0.5-0.1-0.7-0.3c-0.3-0.4-0.7-0.7-1.2-0.9s-1-0.3-1.6-0.3s-1.1,0.1-1.5,0.4s-0.6,0.7-0.6,1.3s0.3,1,0.7,1.2
		c0.5,0.3,1.2,0.5,2.2,0.8c0.8,0.2,1.6,0.5,2.1,0.7c0.6,0.3,1,0.6,1.4,1.1s0.6,1.2,0.6,2s-0.2,1.4-0.6,2s-1,1-1.7,1.3
		s-1.4,0.4-2.2,0.4c-1,0-1.9-0.2-2.8-0.5c-0.9-0.4-1.6-0.9-2.2-1.7C343.7,58,343.6,57.8,343.6,57.5z"/>
	<path class="st0" d="M359.4,49.8V57c0,0.8,0.4,1.2,1.1,1.2c0.1,0,0.3,0,0.5-0.1s0.3-0.1,0.5-0.1s0.4,0.1,0.5,0.3s0.2,0.4,0.2,0.7
		s-0.2,0.6-0.6,0.9c-0.4,0.2-0.8,0.4-1.3,0.4s-1-0.1-1.5-0.2c-0.4-0.1-0.8-0.4-1.2-0.9s-0.5-1.1-0.5-2.1v-7.2h-1.4
		c-0.3,0-0.6-0.1-0.8-0.3c-0.2-0.2-0.3-0.5-0.3-0.8s0.1-0.6,0.3-0.7s0.5-0.3,0.8-0.3h1.4v-2c0-0.3,0.1-0.6,0.3-0.8
		c0.2-0.2,0.5-0.3,0.8-0.3s0.6,0.1,0.8,0.3c0.2,0.2,0.3,0.5,0.3,0.8v2h2c0.3,0,0.6,0.1,0.8,0.3c0.2,0.2,0.3,0.5,0.3,0.8
		s-0.1,0.6-0.3,0.7c-0.2,0.2-0.5,0.3-0.8,0.3h-1.9V49.8z"/>
	<path class="st0" d="M376.1,47.7c0.2,0.2,0.3,0.5,0.3,0.9V59c0,0.3-0.1,0.6-0.3,0.8c-0.2,0.2-0.5,0.3-0.8,0.3s-0.6-0.1-0.8-0.3
		c-0.2-0.2-0.3-0.5-0.3-0.8v-0.6c-0.4,0.6-1,1-1.7,1.4s-1.5,0.6-2.3,0.6c-1.1,0-2.1-0.3-3-0.8c-0.9-0.6-1.6-1.3-2.1-2.3
		s-0.8-2.1-0.8-3.4s0.3-2.4,0.8-3.4s1.2-1.8,2.1-2.3s1.8-0.8,2.9-0.8c0.8,0,1.6,0.2,2.4,0.5c0.7,0.4,1.3,0.8,1.7,1.3v-0.6
		c0-0.3,0.1-0.6,0.3-0.8c0.2-0.2,0.5-0.3,0.8-0.3S375.9,47.5,376.1,47.7z M372.4,57.7c0.6-0.4,1-0.9,1.4-1.6
		c0.3-0.7,0.5-1.4,0.5-2.3c0-0.8-0.2-1.6-0.5-2.3s-0.8-1.2-1.4-1.6c-0.6-0.4-1.3-0.6-2-0.6s-1.4,0.2-2,0.6c-0.6,0.4-1,0.9-1.4,1.6
		c-0.3,0.7-0.5,1.4-0.5,2.3c0,0.8,0.2,1.6,0.5,2.3s0.8,1.2,1.4,1.6c0.6,0.4,1.3,0.6,2,0.6S371.8,58.1,372.4,57.7z"/>
	<path class="st0" d="M390.6,52.5V59c0,0.3-0.1,0.6-0.3,0.8c-0.2,0.2-0.5,0.3-0.8,0.3s-0.6-0.1-0.8-0.3c-0.2-0.2-0.3-0.5-0.3-0.8
		v-6.5c0-0.9-0.2-1.7-0.6-2.3s-1.1-0.8-2.1-0.8c-0.6,0-1.2,0.1-1.7,0.4c-0.5,0.3-0.9,0.7-1.2,1.1c-0.3,0.5-0.4,1-0.4,1.5V59
		c0,0.3-0.1,0.6-0.3,0.8s-0.5,0.3-0.8,0.3s-0.6-0.1-0.8-0.3c-0.2-0.2-0.3-0.5-0.3-0.8V48.7c0-0.3,0.1-0.6,0.3-0.8
		c0.2-0.2,0.5-0.3,0.8-0.3s0.6,0.1,0.8,0.3c0.2,0.2,0.3,0.5,0.3,0.8v0.8c0.4-0.6,1-1.2,1.7-1.6c0.7-0.4,1.5-0.7,2.4-0.7
		C389.1,47.3,390.6,49,390.6,52.5z"/>
	<path class="st0" d="M405,42.7c0.2,0.2,0.3,0.5,0.3,0.8V59c0,0.3-0.1,0.6-0.3,0.8c-0.2,0.2-0.5,0.3-0.8,0.3s-0.6-0.1-0.8-0.3
		c-0.2-0.2-0.3-0.5-0.3-0.8v-0.7c-0.4,0.6-1,1.1-1.7,1.5s-1.5,0.6-2.3,0.6c-1.1,0-2.1-0.3-3-0.8c-0.9-0.6-1.6-1.3-2.1-2.3
		s-0.8-2.1-0.8-3.4s0.3-2.4,0.8-3.4s1.2-1.8,2.1-2.3s1.8-0.8,2.9-0.8c0.8,0,1.6,0.2,2.4,0.5c0.7,0.4,1.3,0.8,1.8,1.4v-5.6
		c0-0.3,0.1-0.6,0.3-0.8s0.5-0.3,0.8-0.3S404.8,42.5,405,42.7z M401.3,57.7c0.6-0.4,1-0.9,1.4-1.6c0.3-0.7,0.5-1.4,0.5-2.3
		c0-0.8-0.2-1.6-0.5-2.3s-0.8-1.2-1.4-1.6c-0.6-0.4-1.3-0.6-2-0.6s-1.4,0.2-2,0.6c-0.6,0.4-1,0.9-1.4,1.6c-0.3,0.7-0.5,1.4-0.5,2.3
		c0,0.8,0.2,1.6,0.5,2.3s0.8,1.2,1.4,1.6c0.6,0.4,1.3,0.6,2,0.6S400.7,58.1,401.3,57.7z"/>
	<path class="st0" d="M419.7,47.7c0.2,0.2,0.3,0.5,0.3,0.9V59c0,0.3-0.1,0.6-0.3,0.8c-0.2,0.2-0.5,0.3-0.8,0.3s-0.6-0.1-0.8-0.3
		c-0.2-0.2-0.3-0.5-0.3-0.8v-0.6c-0.4,0.6-1,1-1.7,1.4s-1.5,0.6-2.3,0.6c-1.1,0-2.1-0.3-3-0.8c-0.9-0.6-1.6-1.3-2.1-2.3
		s-0.8-2.1-0.8-3.4s0.3-2.4,0.8-3.4s1.2-1.8,2.1-2.3s1.8-0.8,2.9-0.8c0.8,0,1.6,0.2,2.4,0.5c0.7,0.4,1.3,0.8,1.7,1.3v-0.6
		c0-0.3,0.1-0.6,0.3-0.8c0.2-0.2,0.5-0.3,0.8-0.3S419.5,47.5,419.7,47.7z M416,57.7c0.6-0.4,1-0.9,1.4-1.6c0.3-0.7,0.5-1.4,0.5-2.3
		c0-0.8-0.2-1.6-0.5-2.3s-0.8-1.2-1.4-1.6c-0.6-0.4-1.3-0.6-2-0.6s-1.4,0.2-2,0.6c-0.6,0.4-1,0.9-1.4,1.6c-0.3,0.7-0.5,1.4-0.5,2.3
		c0,0.8,0.2,1.6,0.5,2.3s0.8,1.2,1.4,1.6c0.6,0.4,1.3,0.6,2,0.6S415.4,58.1,416,57.7z"/>
	<path class="st0" d="M430.8,47.6c0.3,0.2,0.5,0.5,0.5,0.8c0,0.4-0.1,0.7-0.3,0.9s-0.4,0.3-0.7,0.3c-0.1,0-0.4,0-0.6-0.1
		c-0.3-0.1-0.6-0.2-0.8-0.2c-0.5,0-1,0.2-1.5,0.5s-0.9,0.8-1.2,1.4s-0.4,1.3-0.4,2V59c0,0.3-0.1,0.6-0.3,0.8s-0.5,0.3-0.8,0.3
		s-0.6-0.1-0.8-0.3c-0.2-0.2-0.3-0.5-0.3-0.8V48.7c0-0.3,0.1-0.6,0.3-0.8c0.2-0.2,0.5-0.3,0.8-0.3s0.6,0.1,0.8,0.3
		c0.2,0.2,0.3,0.5,0.3,0.8V50c0.4-0.8,0.9-1.4,1.6-1.9s1.5-0.7,2.4-0.8C430.1,47.3,430.5,47.4,430.8,47.6z"/>
	<path class="st0" d="M443.9,42.7c0.2,0.2,0.3,0.5,0.3,0.8V59c0,0.3-0.1,0.6-0.3,0.8c-0.2,0.2-0.5,0.3-0.8,0.3s-0.6-0.1-0.8-0.3
		c-0.2-0.2-0.3-0.5-0.3-0.8v-0.7c-0.4,0.6-1,1.1-1.7,1.5s-1.5,0.6-2.3,0.6c-1.1,0-2.1-0.3-3-0.8c-0.9-0.6-1.6-1.3-2.1-2.3
		s-0.8-2.1-0.8-3.4s0.3-2.4,0.8-3.4s1.2-1.8,2.1-2.3s1.8-0.8,2.9-0.8c0.8,0,1.6,0.2,2.4,0.5c0.7,0.4,1.3,0.8,1.8,1.4v-5.6
		c0-0.3,0.1-0.6,0.3-0.8s0.5-0.3,0.8-0.3S443.7,42.5,443.9,42.7z M440.1,57.7c0.6-0.4,1-0.9,1.4-1.6c0.3-0.7,0.5-1.4,0.5-2.3
		c0-0.8-0.2-1.6-0.5-2.3s-0.8-1.2-1.4-1.6c-0.6-0.4-1.3-0.6-2-0.6s-1.4,0.2-2,0.6c-0.6,0.4-1,0.9-1.4,1.6c-0.3,0.7-0.5,1.4-0.5,2.3
		c0,0.8,0.2,1.6,0.5,2.3s0.8,1.2,1.4,1.6c0.6,0.4,1.3,0.6,2,0.6S439.6,58.1,440.1,57.7z"/>
	<path class="st0" d="M148.6,77.8V85c0,0.8,0.4,1.2,1.1,1.2c0.1,0,0.3,0,0.5-0.1s0.3-0.1,0.5-0.1s0.4,0.1,0.5,0.3
		c0.1,0.2,0.2,0.4,0.2,0.7c0,0.3-0.2,0.6-0.6,0.9c-0.4,0.2-0.8,0.4-1.3,0.4s-1-0.1-1.5-0.2c-0.4-0.1-0.8-0.4-1.2-0.9
		c-0.3-0.5-0.5-1.1-0.5-2.1v-7.2h-1.4c-0.3,0-0.6-0.1-0.8-0.3c-0.2-0.2-0.3-0.5-0.3-0.8s0.1-0.6,0.3-0.7c0.2-0.2,0.5-0.3,0.8-0.3
		h1.4v-2c0-0.3,0.1-0.6,0.3-0.8c0.2-0.2,0.5-0.3,0.8-0.3s0.6,0.1,0.8,0.3c0.2,0.2,0.3,0.5,0.3,0.8v2h2c0.3,0,0.6,0.1,0.8,0.3
		s0.3,0.5,0.3,0.8s-0.1,0.6-0.3,0.7c-0.2,0.2-0.5,0.3-0.8,0.3h-1.9V77.8z"/>
	<path class="st0" d="M161.7,75.6c0.3,0.2,0.5,0.5,0.5,0.8c0,0.4-0.1,0.7-0.3,0.9c-0.2,0.2-0.4,0.3-0.7,0.3c-0.1,0-0.4,0-0.6-0.1
		c-0.3-0.1-0.6-0.2-0.8-0.2c-0.5,0-1,0.2-1.5,0.5s-0.9,0.8-1.2,1.4s-0.4,1.3-0.4,2V87c0,0.3-0.1,0.6-0.3,0.8
		c-0.2,0.2-0.5,0.3-0.8,0.3s-0.6-0.1-0.8-0.3c-0.2-0.2-0.3-0.5-0.3-0.8V76.7c0-0.3,0.1-0.6,0.3-0.8c0.2-0.2,0.5-0.3,0.8-0.3
		s0.6,0.1,0.8,0.3c0.2,0.2,0.3,0.5,0.3,0.8V78c0.4-0.8,0.9-1.4,1.6-1.9c0.7-0.5,1.5-0.7,2.4-0.8C161,75.3,161.4,75.4,161.7,75.6z"/>
	<path class="st0" d="M175,75.7c0.2,0.2,0.3,0.5,0.3,0.9V87c0,0.3-0.1,0.6-0.3,0.8c-0.2,0.2-0.5,0.3-0.8,0.3s-0.6-0.1-0.8-0.3
		c-0.2-0.2-0.3-0.5-0.3-0.8v-0.6c-0.4,0.6-1,1-1.7,1.4s-1.5,0.6-2.3,0.6c-1.1,0-2.1-0.3-3-0.8c-0.9-0.6-1.6-1.3-2.1-2.3
		s-0.8-2.1-0.8-3.4s0.3-2.4,0.8-3.4s1.2-1.8,2.1-2.3c0.9-0.6,1.8-0.8,2.9-0.8c0.8,0,1.6,0.2,2.4,0.5c0.7,0.4,1.3,0.8,1.7,1.3v-0.6
		c0-0.3,0.1-0.6,0.3-0.8c0.2-0.2,0.5-0.3,0.8-0.3C174.5,75.4,174.8,75.5,175,75.7z M171.3,85.7c0.6-0.4,1-0.9,1.4-1.6
		c0.3-0.7,0.5-1.4,0.5-2.3c0-0.8-0.2-1.6-0.5-2.3c-0.3-0.7-0.8-1.2-1.4-1.6c-0.6-0.4-1.3-0.6-2-0.6s-1.4,0.2-2,0.6s-1,0.9-1.4,1.6
		c-0.3,0.7-0.5,1.4-0.5,2.3c0,0.8,0.2,1.6,0.5,2.3c0.3,0.7,0.8,1.2,1.4,1.6c0.6,0.4,1.3,0.6,2,0.6S170.7,86.1,171.3,85.7z"/>
	<path class="st0" d="M188.8,75.8c0.2,0.2,0.3,0.4,0.3,0.7c0,0.1-0.1,0.3-0.2,0.6l-4.6,10.4c-0.1,0.2-0.2,0.4-0.4,0.5
		s-0.4,0.2-0.6,0.2c-0.3,0-0.5,0-0.7-0.1s-0.4-0.3-0.5-0.6l-4.6-10.4c-0.1-0.2-0.1-0.4-0.1-0.6c0-0.3,0.1-0.5,0.3-0.7
		s0.5-0.3,0.8-0.3c0.2,0,0.5,0.1,0.6,0.2s0.3,0.3,0.5,0.5l3.6,8.4l3.6-8.4c0.2-0.5,0.6-0.7,1-0.7C188.3,75.5,188.6,75.6,188.8,75.8z
		"/>
	<path class="st0" d="M202.1,82.1c-0.2,0.2-0.5,0.3-0.8,0.3h-8.4c0.1,1.2,0.6,2.1,1.3,2.8c0.8,0.7,1.7,1.1,2.8,1.1
		c0.8,0,1.4-0.1,1.9-0.3c0.5-0.2,0.9-0.5,1.3-0.9c0.2-0.1,0.5-0.2,0.7-0.2c0.3,0,0.5,0.1,0.7,0.3c0.2,0.2,0.3,0.4,0.3,0.7
		c0,0.3-0.2,0.6-0.5,0.9c-0.5,0.5-1.1,0.9-1.8,1.2c-0.8,0.3-1.6,0.5-2.4,0.5c-1.3,0-2.4-0.3-3.4-0.8s-1.7-1.3-2.3-2.3
		c-0.5-1-0.8-2.1-0.8-3.3c0-1.3,0.3-2.5,0.8-3.5c0.6-1,1.3-1.8,2.2-2.3s1.9-0.8,2.9-0.8s2,0.3,2.9,0.8s1.6,1.3,2.2,2.2
		c0.5,0.9,0.8,2,0.8,3.1C202.4,81.7,202.3,81.9,202.1,82.1z M194.3,78.2c-0.7,0.5-1.1,1.3-1.3,2.3h7.1v-0.2
		c-0.1-0.8-0.5-1.5-1.1-2.1c-0.7-0.5-1.5-0.8-2.3-0.8C195.7,77.4,194.9,77.7,194.3,78.2z"/>
	<path class="st0" d="M207.2,87.8c-0.2,0.2-0.5,0.3-0.8,0.3s-0.6-0.1-0.8-0.3c-0.2-0.2-0.3-0.5-0.3-0.8V71.6c0-0.3,0.1-0.6,0.3-0.8
		s0.5-0.3,0.8-0.3s0.6,0.1,0.8,0.3s0.3,0.5,0.3,0.8V87C207.6,87.3,207.5,87.6,207.2,87.8z"/>
	<path class="st0" d="M217.8,73.6c-0.2-0.2-0.3-0.4-0.3-0.8v-0.4c0-0.4,0.1-0.7,0.3-0.8c0.2-0.2,0.5-0.2,1-0.2s0.8,0.1,1,0.3
		c0.2,0.2,0.3,0.4,0.3,0.8v0.4c0,0.4-0.1,0.7-0.3,0.8c-0.2,0.2-0.5,0.2-1,0.2C218.4,73.9,218,73.8,217.8,73.6z M219.7,87.8
		c-0.2,0.2-0.5,0.3-0.8,0.3s-0.6-0.1-0.8-0.3c-0.2-0.2-0.3-0.5-0.3-0.8V76.6c0-0.3,0.1-0.6,0.3-0.8c0.2-0.2,0.5-0.3,0.8-0.3
		s0.6,0.1,0.8,0.3s0.3,0.5,0.3,0.8V87C220,87.3,219.9,87.6,219.7,87.8z"/>
	<path class="st0" d="M234,80.5V87c0,0.3-0.1,0.6-0.3,0.8c-0.2,0.2-0.5,0.3-0.8,0.3s-0.6-0.1-0.8-0.3c-0.2-0.2-0.3-0.5-0.3-0.8v-6.5
		c0-0.9-0.2-1.7-0.6-2.3c-0.4-0.6-1.1-0.8-2.1-0.8c-0.6,0-1.2,0.1-1.7,0.4s-0.9,0.7-1.2,1.1c-0.3,0.5-0.4,1-0.4,1.5V87
		c0,0.3-0.1,0.6-0.3,0.8c-0.2,0.2-0.5,0.3-0.8,0.3s-0.6-0.1-0.8-0.3c-0.2-0.2-0.3-0.5-0.3-0.8V76.7c0-0.3,0.1-0.6,0.3-0.8
		c0.2-0.2,0.5-0.3,0.8-0.3s0.6,0.1,0.8,0.3c0.2,0.2,0.3,0.5,0.3,0.8v0.8c0.4-0.6,1-1.2,1.7-1.6s1.5-0.7,2.4-0.7
		C232.6,75.3,234,77,234,80.5z"/>
	<path class="st0" d="M236.5,85.5c0-0.3,0.2-0.6,0.5-0.8c0.2-0.1,0.3-0.2,0.6-0.2s0.6,0.1,0.8,0.4c0.5,0.5,1,1,1.5,1.2
		c0.6,0.3,1.2,0.4,2,0.4c0.6,0,1.1-0.2,1.6-0.4c0.5-0.3,0.7-0.7,0.7-1.3c0-0.5-0.2-1-0.7-1.2c-0.5-0.3-1.2-0.6-2.1-0.8
		c-0.9-0.2-1.6-0.5-2.2-0.8c-0.6-0.3-1.1-0.6-1.5-1.2c-0.4-0.5-0.6-1.2-0.6-2c0-0.7,0.2-1.4,0.6-1.9c0.4-0.5,1-1,1.6-1.3
		c0.7-0.3,1.4-0.5,2.2-0.5s1.5,0.1,2.3,0.4s1.4,0.7,1.9,1.3c0.2,0.2,0.3,0.5,0.3,0.7c0,0.3-0.1,0.5-0.4,0.7
		c-0.2,0.1-0.4,0.2-0.6,0.2c-0.3,0-0.5-0.1-0.7-0.3c-0.3-0.4-0.7-0.7-1.2-0.9c-0.5-0.2-1-0.3-1.6-0.3s-1.1,0.1-1.5,0.4
		c-0.4,0.2-0.6,0.7-0.6,1.3c0,0.6,0.3,1,0.7,1.2c0.5,0.3,1.2,0.5,2.2,0.8c0.8,0.2,1.6,0.5,2.1,0.7s1,0.6,1.4,1.1s0.6,1.2,0.6,2
		s-0.2,1.4-0.6,2c-0.4,0.6-1,1-1.7,1.3s-1.4,0.4-2.2,0.4c-1,0-1.9-0.2-2.8-0.5c-0.9-0.4-1.6-0.9-2.2-1.7
		C236.5,86,236.5,85.8,236.5,85.5z"/>
	<path class="st0" d="M259,75.9c0.2,0.2,0.3,0.5,0.3,0.8v6.4c0,1.7-0.5,3-1.4,3.9s-2.2,1.4-3.9,1.4s-3-0.5-3.9-1.4s-1.4-2.2-1.4-3.9
		v-6.4c0-0.3,0.1-0.6,0.3-0.8c0.2-0.2,0.5-0.3,0.8-0.3s0.6,0.1,0.8,0.3c0.2,0.2,0.3,0.5,0.3,0.8v6.4c0,2.1,1,3.1,3,3.1
		c1,0,1.7-0.3,2.2-0.8c0.5-0.5,0.8-1.3,0.8-2.4v-6.4c0-0.3,0.1-0.6,0.3-0.8c0.2-0.2,0.5-0.3,0.8-0.3C258.6,75.6,258.8,75.7,259,75.9
		z"/>
	<path class="st0" d="M270.1,75.6c0.3,0.2,0.5,0.5,0.5,0.8c0,0.4-0.1,0.7-0.3,0.9c-0.2,0.2-0.4,0.3-0.7,0.3c-0.1,0-0.4,0-0.6-0.1
		c-0.3-0.1-0.6-0.2-0.8-0.2c-0.5,0-1,0.2-1.5,0.5s-0.9,0.8-1.2,1.4c-0.3,0.6-0.4,1.3-0.4,2V87c0,0.3-0.1,0.6-0.3,0.8
		c-0.2,0.2-0.5,0.3-0.8,0.3s-0.6-0.1-0.8-0.3c-0.2-0.2-0.3-0.5-0.3-0.8V76.7c0-0.3,0.1-0.6,0.3-0.8c0.2-0.2,0.5-0.3,0.8-0.3
		s0.6,0.1,0.8,0.3c0.2,0.2,0.3,0.5,0.3,0.8V78c0.4-0.8,0.9-1.4,1.6-1.9s1.5-0.7,2.4-0.8C269.5,75.3,269.8,75.4,270.1,75.6z"/>
	<path class="st0" d="M283.4,75.7c0.2,0.2,0.3,0.5,0.3,0.9V87c0,0.3-0.1,0.6-0.3,0.8c-0.2,0.2-0.5,0.3-0.8,0.3s-0.6-0.1-0.8-0.3
		c-0.2-0.2-0.3-0.5-0.3-0.8v-0.6c-0.4,0.6-1,1-1.7,1.4s-1.5,0.6-2.3,0.6c-1.1,0-2.1-0.3-3-0.8c-0.9-0.6-1.6-1.3-2.1-2.3
		s-0.8-2.1-0.8-3.4s0.3-2.4,0.8-3.4s1.2-1.8,2.1-2.3c0.9-0.6,1.8-0.8,2.9-0.8c0.8,0,1.6,0.2,2.4,0.5c0.7,0.4,1.3,0.8,1.7,1.3v-0.6
		c0-0.3,0.1-0.6,0.3-0.8c0.2-0.2,0.5-0.3,0.8-0.3C282.9,75.4,283.2,75.5,283.4,75.7z M279.7,85.7c0.6-0.4,1-0.9,1.4-1.6
		c0.3-0.7,0.5-1.4,0.5-2.3c0-0.8-0.2-1.6-0.5-2.3c-0.3-0.7-0.8-1.2-1.4-1.6s-1.3-0.6-2-0.6s-1.4,0.2-2,0.6s-1,0.9-1.4,1.6
		c-0.3,0.7-0.5,1.4-0.5,2.3c0,0.8,0.2,1.6,0.5,2.3c0.3,0.7,0.8,1.2,1.4,1.6s1.3,0.6,2,0.6S279.1,86.1,279.7,85.7z"/>
	<path class="st0" d="M297.9,80.5V87c0,0.3-0.1,0.6-0.3,0.8c-0.2,0.2-0.5,0.3-0.8,0.3s-0.6-0.1-0.8-0.3c-0.2-0.2-0.3-0.5-0.3-0.8
		v-6.5c0-0.9-0.2-1.7-0.6-2.3c-0.4-0.6-1.1-0.8-2.1-0.8c-0.6,0-1.2,0.1-1.7,0.4s-0.9,0.7-1.2,1.1c-0.3,0.5-0.4,1-0.4,1.5V87
		c0,0.3-0.1,0.6-0.3,0.8s-0.5,0.3-0.8,0.3s-0.6-0.1-0.8-0.3c-0.2-0.2-0.3-0.5-0.3-0.8V76.7c0-0.3,0.1-0.6,0.3-0.8
		c0.2-0.2,0.5-0.3,0.8-0.3s0.6,0.1,0.8,0.3c0.2,0.2,0.3,0.5,0.3,0.8v0.8c0.4-0.6,1-1.2,1.7-1.6s1.5-0.7,2.4-0.7
		C296.4,75.3,297.9,77,297.9,80.5z"/>
	<path class="st0" d="M309.9,75.9c0.8,0.4,1.3,0.9,1.3,1.5c0,0.3-0.1,0.5-0.3,0.7c-0.2,0.2-0.4,0.3-0.7,0.3c-0.2,0-0.4,0-0.5-0.1
		s-0.3-0.2-0.5-0.3c-0.1-0.1-0.2-0.2-0.5-0.3c-0.2-0.1-0.5-0.2-0.8-0.2c-0.4-0.1-0.7-0.1-1-0.1c-0.8,0-1.6,0.2-2.2,0.6
		s-1.1,0.9-1.5,1.6s-0.5,1.4-0.5,2.3c0,0.8,0.2,1.6,0.5,2.3c0.3,0.7,0.8,1.2,1.5,1.6c0.6,0.4,1.3,0.6,2.1,0.6c0.8,0,1.5-0.1,2-0.4
		c0.1-0.1,0.3-0.2,0.5-0.3c0.2-0.1,0.3-0.2,0.4-0.3s0.3-0.1,0.4-0.1c0.3,0,0.6,0.1,0.8,0.3c0.2,0.2,0.3,0.5,0.3,0.8s-0.2,0.7-0.6,1
		s-1,0.6-1.7,0.8c-0.7,0.2-1.5,0.3-2.3,0.3c-1.2,0-2.3-0.3-3.2-0.9s-1.6-1.4-2.1-2.4s-0.8-2.1-0.8-3.3c0-1.2,0.3-2.3,0.8-3.3
		s1.3-1.8,2.2-2.4c0.9-0.6,2-0.9,3.2-0.9C308,75.3,309.1,75.5,309.9,75.9z"/>
	<path class="st0" d="M324.3,82.1c-0.2,0.2-0.5,0.3-0.8,0.3H315c0.1,1.2,0.6,2.1,1.3,2.8c0.8,0.7,1.7,1.1,2.8,1.1
		c0.8,0,1.4-0.1,1.9-0.3c0.5-0.2,0.9-0.5,1.3-0.9c0.2-0.1,0.5-0.2,0.7-0.2c0.3,0,0.5,0.1,0.7,0.3s0.3,0.4,0.3,0.7
		c0,0.3-0.2,0.6-0.5,0.9c-0.5,0.5-1.1,0.9-1.8,1.2c-0.8,0.3-1.6,0.5-2.4,0.5c-1.3,0-2.4-0.3-3.4-0.8s-1.7-1.3-2.3-2.3
		c-0.5-1-0.8-2.1-0.8-3.3c0-1.3,0.3-2.5,0.8-3.5c0.6-1,1.3-1.8,2.2-2.3c0.9-0.5,1.9-0.8,2.9-0.8s2,0.3,2.9,0.8s1.6,1.3,2.2,2.2
		c0.5,0.9,0.8,2,0.8,3.1C324.6,81.7,324.5,81.9,324.3,82.1z M316.4,78.2c-0.7,0.5-1.1,1.3-1.3,2.3h7.1v-0.2
		c-0.1-0.8-0.5-1.5-1.1-2.1c-0.7-0.5-1.5-0.8-2.3-0.8C317.9,77.4,317.1,77.7,316.4,78.2z"/>
	<path class="st0" d="M343.2,76.2c0.9,0.6,1.6,1.3,2.1,2.3s0.8,2.1,0.8,3.4s-0.3,2.4-0.8,3.3s-1.2,1.8-2.1,2.3s-1.8,0.8-2.9,0.8
		c-0.8,0-1.6-0.2-2.3-0.6c-0.7-0.4-1.3-0.8-1.8-1.3v5.3c0,0.3-0.1,0.6-0.3,0.8s-0.5,0.3-0.8,0.3s-0.6-0.1-0.8-0.3
		c-0.2-0.2-0.3-0.5-0.3-0.8v-15c0-0.3,0.1-0.6,0.3-0.8c0.2-0.2,0.5-0.3,0.8-0.3s0.6,0.1,0.8,0.3c0.2,0.2,0.3,0.5,0.3,0.8v0.7
		c0.4-0.6,0.9-1,1.7-1.4c0.7-0.4,1.5-0.6,2.4-0.6C341.3,75.4,342.3,75.6,343.2,76.2z M342,85.7c0.6-0.4,1.1-0.9,1.4-1.6
		s0.5-1.4,0.5-2.2c0-0.8-0.2-1.6-0.5-2.2c-0.3-0.7-0.8-1.2-1.4-1.6s-1.3-0.6-2-0.6c-0.8,0-1.4,0.2-2,0.6s-1.1,0.9-1.4,1.6
		s-0.5,1.4-0.5,2.3c0,0.8,0.2,1.6,0.5,2.3c0.3,0.7,0.8,1.2,1.4,1.6s1.3,0.6,2,0.6C340.7,86.3,341.4,86.1,342,85.7z"/>
	<path class="st0" d="M359.7,85.2c-0.6,1-1.3,1.8-2.3,2.3c-1,0.6-2,0.8-3.2,0.8S352,88,351,87.5c-1-0.6-1.7-1.3-2.3-2.3
		c-0.6-1-0.8-2.1-0.8-3.4s0.3-2.4,0.8-3.4c0.6-1,1.3-1.8,2.3-2.4s2-0.8,3.2-0.8s2.2,0.3,3.2,0.8c1,0.6,1.7,1.3,2.3,2.4
		c0.6,1,0.8,2.1,0.8,3.4S360.3,84.2,359.7,85.2z M357.8,79.6c-0.4-0.7-0.8-1.2-1.5-1.6c-0.6-0.4-1.3-0.6-2.1-0.6
		c-0.8,0-1.4,0.2-2.1,0.6s-1.1,0.9-1.5,1.6s-0.5,1.5-0.5,2.3s0.2,1.6,0.5,2.3c0.4,0.7,0.8,1.2,1.5,1.6c0.6,0.4,1.3,0.6,2.1,0.6
		c0.8,0,1.4-0.2,2.1-0.6c0.6-0.4,1.1-0.9,1.5-1.6s0.5-1.4,0.5-2.3S358.1,80.2,357.8,79.6z"/>
	<path class="st0" d="M365.4,87.8c-0.2,0.2-0.5,0.3-0.8,0.3s-0.6-0.1-0.8-0.3s-0.3-0.5-0.3-0.8V71.6c0-0.3,0.1-0.6,0.3-0.8
		c0.2-0.2,0.5-0.3,0.8-0.3s0.6,0.1,0.8,0.3c0.2,0.2,0.3,0.5,0.3,0.8V87C365.7,87.3,365.6,87.6,365.4,87.8z"/>
	<path class="st0" d="M369.3,73.6c-0.2-0.2-0.3-0.4-0.3-0.8v-0.4c0-0.4,0.1-0.7,0.3-0.8c0.2-0.2,0.5-0.2,1-0.2c0.4,0,0.8,0.1,1,0.3
		s0.3,0.4,0.3,0.8v0.4c0,0.4-0.1,0.7-0.3,0.8c-0.2,0.2-0.5,0.2-1,0.2S369.5,73.8,369.3,73.6z M371.1,87.8c-0.2,0.2-0.5,0.3-0.8,0.3
		s-0.6-0.1-0.8-0.3s-0.3-0.5-0.3-0.8V76.6c0-0.3,0.1-0.6,0.3-0.8s0.5-0.3,0.8-0.3s0.6,0.1,0.8,0.3s0.3,0.5,0.3,0.8V87
		C371.4,87.3,371.3,87.6,371.1,87.8z"/>
	<path class="st0" d="M383.4,75.9c0.8,0.4,1.3,0.9,1.3,1.5c0,0.3-0.1,0.5-0.3,0.7c-0.2,0.2-0.4,0.3-0.7,0.3c-0.2,0-0.4,0-0.5-0.1
		s-0.3-0.2-0.5-0.3c-0.1-0.1-0.2-0.2-0.5-0.3c-0.2-0.1-0.5-0.2-0.8-0.2c-0.4-0.1-0.7-0.1-1-0.1c-0.8,0-1.6,0.2-2.2,0.6
		s-1.1,0.9-1.5,1.6s-0.5,1.4-0.5,2.3c0,0.8,0.2,1.6,0.5,2.3c0.3,0.7,0.8,1.2,1.5,1.6c0.6,0.4,1.3,0.6,2.1,0.6c0.8,0,1.5-0.1,2-0.4
		c0.1-0.1,0.3-0.2,0.5-0.3c0.2-0.1,0.3-0.2,0.4-0.3s0.3-0.1,0.4-0.1c0.3,0,0.6,0.1,0.8,0.3c0.2,0.2,0.3,0.5,0.3,0.8s-0.2,0.7-0.6,1
		s-1,0.6-1.7,0.8c-0.7,0.2-1.5,0.3-2.3,0.3c-1.2,0-2.3-0.3-3.2-0.9s-1.6-1.4-2.1-2.4s-0.8-2.1-0.8-3.3c0-1.2,0.3-2.3,0.8-3.3
		s1.3-1.8,2.2-2.4c0.9-0.6,2-0.9,3.2-0.9C381.5,75.3,382.5,75.5,383.4,75.9z"/>
	<path class="st0" d="M397.3,75.8c0.2,0.2,0.3,0.5,0.3,0.8V87c0,2-0.6,3.5-1.7,4.5s-2.6,1.5-4.4,1.5c-0.6,0-1.2-0.1-1.8-0.2
		c-0.6-0.1-1-0.3-1.4-0.5c-0.6-0.3-0.9-0.6-0.9-1.1c0-0.1,0-0.2,0-0.3c0.1-0.3,0.2-0.5,0.4-0.6c0.2-0.1,0.4-0.2,0.6-0.2
		c0.1,0,0.2,0,0.4,0.1c0.5,0.2,0.9,0.4,1.3,0.5s0.8,0.2,1.3,0.2c2.5,0,3.7-1.3,3.7-3.8v-0.5c-0.4,0.6-1,1-1.7,1.3s-1.5,0.5-2.3,0.5
		c-1.3,0-2.4-0.4-3.1-1.3c-0.7-0.8-1.1-2-1.1-3.3v-7.2c0-0.3,0.1-0.6,0.3-0.8c0.2-0.2,0.5-0.3,0.8-0.3s0.6,0.1,0.8,0.3
		s0.3,0.5,0.3,0.8v6.6c0,1.1,0.2,1.8,0.7,2.3s1.2,0.8,2.1,0.8s1.7-0.3,2.3-0.9c0.6-0.6,0.9-1.3,0.9-2.2v-6.6c0-0.3,0.1-0.6,0.3-0.8
		c0.2-0.2,0.5-0.3,0.8-0.3C396.8,75.5,397,75.6,397.3,75.8z"/>
	<path class="st0" d="M403.8,79.5c0.2-0.2,0.5-0.3,0.8-0.3c1.1,0,1.9-0.3,2.6-0.9s1-1.4,1-2.4c0-0.9-0.3-1.7-0.9-2.3
		c-0.6-0.6-1.4-0.9-2.3-0.9c-0.5,0-1,0.1-1.5,0.3c-0.5,0.2-0.9,0.5-1.2,0.9c-0.3,0.3-0.6,0.4-1,0.4c-0.2,0-0.4-0.1-0.6-0.2
		c-0.4-0.3-0.5-0.6-0.5-0.9s0.1-0.6,0.4-0.8c0.5-0.6,1.2-1.1,2-1.5s1.6-0.5,2.5-0.5c1,0,2,0.2,2.8,0.7s1.5,1.1,2,1.9
		s0.7,1.8,0.7,2.8s-0.2,1.8-0.6,2.6s-1,1.3-1.7,1.8s-1.6,0.7-2.5,0.8l0,0c0,0,0,0,0.1,0v1.6c0,0.3-0.1,0.6-0.3,0.8
		c-0.2,0.2-0.5,0.3-0.8,0.3s-0.6-0.1-0.8-0.3c-0.2-0.2-0.3-0.5-0.3-0.8v-2.3C403.5,80.1,403.6,79.8,403.8,79.5z M403.6,87.8
		c-0.2-0.2-0.3-0.5-0.3-0.9v-0.5c0-0.4,0.1-0.7,0.3-0.9c0.2-0.2,0.5-0.3,0.9-0.3h0.2c0.4,0,0.7,0.1,0.9,0.3c0.2,0.2,0.3,0.5,0.3,0.9
		v0.5c0,0.4-0.1,0.7-0.3,0.9c-0.2,0.2-0.5,0.3-0.9,0.3h-0.2C404.1,88.2,403.8,88.1,403.6,87.8z"/>
</g>
<g>
	<path class="st0" d="M85.3,163.8c0-3.5,2.5-6.5,6.8-6.5c1.6,0,2.8,0.4,3.7,1.1c0.3,0.2,0.3,0.4,0.2,0.6l-0.1,0.2
		c-0.1,0.3-0.4,0.3-0.7,0.2c-0.8-0.5-1.9-0.9-3.1-0.9c-3.4,0-5.4,2.4-5.4,5.2s2,5.2,5.4,5.2c1.2,0,2.3-0.4,3.1-0.9
		c0.3-0.2,0.5-0.1,0.7,0.2l0.1,0.2c0.1,0.3,0.1,0.5-0.1,0.6c-1,0.7-2.2,1.1-3.8,1.1C87.8,170.3,85.3,167.4,85.3,163.8z"/>
	<path class="st0" d="M97.4,165.7c0-2.6,1.7-4.7,4.5-4.7c1.5,0,2.7,0.6,3.5,2v-1.3c0-0.3,0.2-0.5,0.5-0.5h0.4c0.3,0,0.5,0.2,0.5,0.5
		v8c0,0.3-0.2,0.5-0.5,0.5h-0.4c-0.3,0-0.5-0.2-0.5-0.5v-1.3c-0.8,1.4-2.1,2-3.5,2C99.2,170.3,97.4,168.2,97.4,165.7z M105.4,165.7
		c0-2-1.4-3.5-3.4-3.5c-2.1,0-3.3,1.6-3.3,3.5s1.2,3.5,3.3,3.5C104,169.1,105.4,167.7,105.4,165.7z"/>
	<path class="st0" d="M109.7,169.7v-8c0-0.3,0.2-0.5,0.5-0.5h0.4c0.3,0,0.5,0.2,0.5,0.5v1.4c0.5-1.4,1.8-2.1,3.1-2.1
		c1.9,0,3.6,1.1,3.6,4.1v4.6c0,0.3-0.2,0.5-0.5,0.5h-0.4c-0.3,0-0.5-0.2-0.5-0.5v-4.6c0-2.2-1.1-2.9-2.3-2.9c-1,0-3,0.7-3,3.6v3.9
		c0,0.3-0.2,0.5-0.5,0.5h-0.4C109.9,170.2,109.7,170,109.7,169.7z"/>
	<path class="st0" d="M119.8,165.7c0-2.6,1.8-4.8,5.1-4.8c0.7,0,1.7,0.2,2.8,0.8c0.3,0.2,0.3,0.4,0.1,0.7l-0.1,0.2
		c-0.2,0.3-0.4,0.3-0.7,0.1c-0.9-0.5-1.7-0.5-2.1-0.5c-2.2,0-3.7,1.5-3.7,3.5s1.5,3.5,3.7,3.5c0.3,0,1.2-0.1,2.1-0.5
		c0.3-0.1,0.5-0.1,0.7,0.1l0.1,0.2c0.2,0.3,0.1,0.6-0.4,0.8c-1,0.5-1.9,0.6-2.5,0.6C121.7,170.3,119.8,168.3,119.8,165.7z"/>
	<path class="st0" d="M129.2,165.7c0-2.6,2-4.7,4.8-4.7c2.2,0,4.2,1.3,4.5,4.2c0.1,0.3-0.1,0.5-0.5,0.5h-7.4c-0.1,2,1.4,3.5,3.7,3.5
		c1,0,1.9-0.3,2.7-0.9c0.2-0.2,0.5-0.1,0.7,0.1l0.1,0.1c0.2,0.2,0.2,0.5-0.1,0.8c-1,0.9-2.3,1.2-3.4,1.2
		C131.1,170.3,129.2,168.2,129.2,165.7z M137.1,164.6c-0.4-1.9-1.8-2.4-3.1-2.4c-1.4,0-2.8,0.7-3.3,2.4H137.1z"/>
	<path class="st0" d="M140.6,169.7v-12c0-0.3,0.2-0.5,0.5-0.5h0.4c0.3,0,0.5,0.2,0.5,0.5v12c0,0.3-0.2,0.5-0.5,0.5h-0.4
		C140.8,170.2,140.6,170,140.6,169.7z"/>
	<path class="st0" d="M145,169.7v-12c0-0.3,0.2-0.5,0.5-0.5h0.4c0.3,0,0.5,0.2,0.5,0.5v12c0,0.3-0.2,0.5-0.5,0.5h-0.4
		C145.2,170.2,145,170,145,169.7z"/>
	<path class="st0" d="M148.7,165.7c0-2.6,1.7-4.7,4.5-4.7c1.5,0,2.7,0.6,3.5,2v-1.3c0-0.3,0.2-0.5,0.5-0.5h0.4
		c0.3,0,0.5,0.2,0.5,0.5v8c0,0.3-0.2,0.5-0.5,0.5h-0.4c-0.3,0-0.5-0.2-0.5-0.5v-1.3c-0.8,1.4-2.1,2-3.5,2
		C150.4,170.3,148.7,168.2,148.7,165.7z M156.7,165.7c0-2-1.4-3.5-3.4-3.5c-2.1,0-3.3,1.6-3.3,3.5s1.2,3.5,3.3,3.5
		C155.3,169.1,156.7,167.7,156.7,165.7z"/>
	<path class="st0" d="M161.3,167.3v-5.1h-1.2c-0.2,0-0.3-0.1-0.3-0.3v-0.5c0-0.2,0.1-0.3,0.3-0.3h1.2l0.3-2.3c0-0.3,0.2-0.4,0.5-0.4
		h0.2c0.3,0,0.4,0.1,0.4,0.4v2.3h2.6c0.2,0,0.3,0.1,0.3,0.3v0.5c0,0.2-0.1,0.3-0.3,0.3h-2.6v5.2c0,1.3,0.6,1.7,1.3,1.7
		s1.3-0.4,1.3-1.2c0-0.1,0-0.2,0-0.3c0-0.2,0.1-0.3,0.3-0.3h0.6c0.2,0,0.3,0.1,0.3,0.2c0.1,0.3,0.1,0.6,0.1,0.6
		c0,1.2-0.9,2.2-2.5,2.2C162.7,170.3,161.3,169.7,161.3,167.3z"/>
	<path class="st0" d="M168,158.2c0-0.6,0.4-1,1-1s1,0.4,1,1s-0.4,1-1,1S168,158.8,168,158.2z M168.3,169.7v-8c0-0.3,0.2-0.5,0.5-0.5
		h0.4c0.3,0,0.5,0.2,0.5,0.5v8c0,0.3-0.2,0.5-0.5,0.5h-0.4C168.5,170.2,168.3,170,168.3,169.7z"/>
	<path class="st0" d="M171.9,165.7c0-2.6,2.1-4.7,4.7-4.7c2.6,0,4.7,2.1,4.7,4.7c0,2.6-2.1,4.7-4.7,4.7
		C174,170.3,171.9,168.3,171.9,165.7z M179.9,165.7c0-1.9-1.5-3.5-3.3-3.5s-3.3,1.6-3.3,3.5s1.5,3.4,3.3,3.4
		C178.5,169.1,179.9,167.6,179.9,165.7z"/>
	<path class="st0" d="M183.5,169.7v-8c0-0.3,0.2-0.5,0.5-0.5h0.4c0.3,0,0.5,0.2,0.5,0.5v1.4c0.5-1.4,1.8-2.1,3.1-2.1
		c1.9,0,3.6,1.1,3.6,4.1v4.6c0,0.3-0.2,0.5-0.5,0.5h-0.4c-0.3,0-0.5-0.2-0.5-0.5v-4.6c0-2.2-1.1-2.9-2.3-2.9c-1,0-3,0.7-3,3.6v3.9
		c0,0.3-0.2,0.5-0.5,0.5H184C183.7,170.2,183.5,170,183.5,169.7z"/>
	<path class="st0" d="M198.5,166.9c0-2,1.9-3.3,3.6-3.9c-0.9-0.7-1.6-1.8-1.6-2.9c0-2.1,2.1-2.8,3.3-2.8c1.7,0,3,1.2,3,2.6
		c0,1.3-1.4,2.7-2.7,3.3l2.7,3.1l1.7-2.3c0.1-0.1,0.2-0.2,0.3-0.2h0.9c0.2,0,0.3,0.1,0.2,0.3l-2.3,3l1,1.2c0.5,0.5,0.9,0.7,1.5,0.7
		c0.4,0,0.8-0.1,1.2-0.3c0.2-0.1,0.3-0.1,0.4,0.1l0.2,0.5c0.1,0.1,0.1,0.3-0.1,0.4c-0.4,0.3-1,0.5-1.7,0.5c-1.1,0-1.8-0.5-2.4-1.2
		l-0.8-0.9c-0.8,1.3-2.4,2-3.9,2C200.5,170.3,198.5,169.1,198.5,166.9z M206,167.4l-3.1-3.5c-1.3,0.5-3,1.4-3,3c0,1.4,1.3,2.3,3,2.3
		C204.1,169.2,205.1,168.5,206,167.4z M205.4,160c0-0.8-0.7-1.6-1.7-1.6c-0.8,0-1.8,0.5-1.8,1.7c0,0.8,0.6,1.6,1.4,2.3
		C204.6,161.9,205.4,160.9,205.4,160z"/>
	<path class="st0" d="M217.7,165.7c0-2.6,1.8-4.7,4.5-4.7c1.4,0,2.7,0.6,3.5,2v-5.3c0-0.3,0.2-0.5,0.5-0.5h0.4
		c0.3,0,0.5,0.2,0.5,0.5v12c0,0.3-0.2,0.5-0.5,0.5h-0.4c-0.3,0-0.5-0.2-0.5-0.5v-1.3c-0.8,1.4-2.1,2-3.5,2
		C219.5,170.3,217.7,168.2,217.7,165.7z M225.7,165.7c0-2-1.4-3.5-3.4-3.5c-2.1,0-3.3,1.6-3.3,3.5s1.2,3.5,3.3,3.5
		C224.3,169.1,225.7,167.7,225.7,165.7z"/>
	<path class="st0" d="M229.3,165.7c0-2.6,2-4.7,4.8-4.7c2.2,0,4.2,1.3,4.5,4.2c0.1,0.3-0.1,0.5-0.5,0.5h-7.4c-0.1,2,1.4,3.5,3.7,3.5
		c1,0,1.9-0.3,2.7-0.9c0.2-0.2,0.5-0.1,0.7,0.1l0.1,0.1c0.2,0.2,0.2,0.5-0.1,0.8c-1,0.9-2.3,1.2-3.4,1.2
		C231.2,170.3,229.3,168.2,229.3,165.7z M237.2,164.6c-0.4-1.9-1.8-2.4-3.1-2.4c-1.4,0-2.8,0.7-3.3,2.4H237.2z"/>
	<path class="st0" d="M240.7,169.7v-12c0-0.3,0.2-0.5,0.5-0.5h0.4c0.3,0,0.5,0.2,0.5,0.5v12c0,0.3-0.2,0.5-0.5,0.5h-0.4
		C240.9,170.2,240.7,170,240.7,169.7z"/>
	<path class="st0" d="M244.4,165.7c0-2.6,1.7-4.7,4.5-4.7c1.5,0,2.7,0.6,3.5,2v-1.3c0-0.3,0.2-0.5,0.5-0.5h0.4
		c0.3,0,0.5,0.2,0.5,0.5v8c0,0.3-0.2,0.5-0.5,0.5h-0.4c-0.3,0-0.5-0.2-0.5-0.5v-1.3c-0.8,1.4-2.1,2-3.5,2
		C246.1,170.3,244.4,168.2,244.4,165.7z M252.4,165.7c0-2-1.4-3.5-3.4-3.5c-2.1,0-3.3,1.6-3.3,3.5s1.2,3.5,3.3,3.5
		C251,169.1,252.4,167.7,252.4,165.7z"/>
	<path class="st0" d="M258,173.6l1.4-3.6l-3.6-8.3c-0.1-0.3,0-0.6,0.4-0.6h0.6c0.3,0,0.5,0.1,0.5,0.4l2.9,6.9l2.7-6.9
		c0.1-0.3,0.3-0.4,0.6-0.4h0.6c0.4,0,0.5,0.2,0.4,0.6l-5.1,12.1c-0.1,0.3-0.3,0.4-0.6,0.4h-0.3C258,174.2,257.9,174,258,173.6z"/>
	<path class="st0" d="M265.5,168.7c-0.2-0.3,0-0.5,0.3-0.6l0.3-0.1c0.3-0.1,0.4,0,0.6,0.3c0.4,0.6,1.1,0.9,1.9,0.9
		c1,0,1.8-0.6,1.8-1.4c0-0.7-0.5-1.1-1.3-1.4l-1.3-0.4c-1.3-0.4-2.1-1.1-2.1-2.4c0-1.4,1.1-2.6,2.9-2.6c1,0,2.1,0.4,2.6,1.5
		c0.2,0.3,0,0.5-0.3,0.6l-0.3,0.1c-0.3,0.1-0.4,0-0.6-0.3c-0.3-0.5-0.8-0.7-1.4-0.7c-1,0-1.6,0.7-1.6,1.4s0.6,1.1,1.2,1.3l1.3,0.4
		c1.6,0.5,2.1,1.5,2.1,2.5c0,1.6-1.4,2.6-3.1,2.6C267.3,170.3,266.1,169.8,265.5,168.7z"/>
	<path class="st0" d="M85.7,209.6l1.1-11.6c0-0.3,0.2-0.5,0.5-0.5h0.8c0.3,0,0.5,0.1,0.6,0.4l4.4,10.2l4.4-10.2
		c0.1-0.3,0.3-0.4,0.6-0.4h0.8c0.3,0,0.5,0.2,0.5,0.5l1.1,11.6c0,0.3-0.1,0.5-0.5,0.5h-0.5c-0.3,0-0.5-0.2-0.5-0.5l-0.9-10.1
		l-4.3,10c-0.1,0.3-0.3,0.4-0.5,0.4H93c-0.3,0-0.5-0.1-0.6-0.4l-4.3-10l-0.9,10.1c0,0.3-0.2,0.5-0.5,0.5h-0.4
		C85.8,210.2,85.7,210,85.7,209.6z"/>
	<path class="st0" d="M102.4,205.7c0-2.6,2-4.7,4.8-4.7c2.2,0,4.2,1.3,4.5,4.2c0.1,0.3-0.1,0.5-0.5,0.5h-7.4c-0.1,2,1.4,3.5,3.7,3.5
		c1,0,1.9-0.3,2.7-0.9c0.2-0.2,0.5-0.1,0.7,0.1l0.1,0.1c0.2,0.2,0.2,0.5-0.1,0.8c-1,0.9-2.3,1.2-3.4,1.2
		C104.3,210.3,102.4,208.2,102.4,205.7z M110.3,204.6c-0.4-1.9-1.8-2.4-3.1-2.4c-1.4,0-2.8,0.7-3.3,2.4H110.3z"/>
	<path class="st0" d="M113.1,205.7c0-2.6,1.8-4.7,4.5-4.7c1.4,0,2.7,0.6,3.5,2v-5.3c0-0.3,0.2-0.5,0.5-0.5h0.4
		c0.3,0,0.5,0.2,0.5,0.5v12c0,0.3-0.2,0.5-0.5,0.5h-0.4c-0.3,0-0.5-0.2-0.5-0.5v-1.3c-0.8,1.4-2.1,2-3.5,2
		C114.8,210.3,113.1,208.2,113.1,205.7z M121.1,205.7c0-2-1.4-3.5-3.4-3.5c-2.1,0-3.3,1.6-3.3,3.5s1.2,3.5,3.3,3.5
		C119.7,209.1,121.1,207.7,121.1,205.7z"/>
	<path class="st0" d="M125.1,198.2c0-0.6,0.4-1,1-1s1,0.4,1,1s-0.4,1-1,1S125.1,198.8,125.1,198.2z M125.4,209.7v-8
		c0-0.3,0.2-0.5,0.5-0.5h0.4c0.3,0,0.5,0.2,0.5,0.5v8c0,0.3-0.2,0.5-0.5,0.5h-0.4C125.6,210.2,125.4,210,125.4,209.7z"/>
	<path class="st0" d="M129,205.7c0-2.6,1.8-4.8,5.1-4.8c0.7,0,1.7,0.2,2.8,0.8c0.3,0.2,0.3,0.4,0.1,0.7l-0.1,0.2
		c-0.2,0.3-0.4,0.3-0.7,0.1c-0.9-0.5-1.7-0.5-2.1-0.5c-2.2,0-3.7,1.5-3.7,3.5s1.5,3.5,3.7,3.5c0.3,0,1.2-0.1,2.1-0.5
		c0.3-0.1,0.5-0.1,0.7,0.1l0.1,0.2c0.2,0.3,0.1,0.6-0.4,0.8c-1,0.5-1.9,0.6-2.5,0.6C130.9,210.3,129.1,208.3,129,205.7z"/>
	<path class="st0" d="M138.4,205.7c0-2.6,1.7-4.7,4.5-4.7c1.5,0,2.7,0.6,3.5,2v-1.3c0-0.3,0.2-0.5,0.5-0.5h0.4
		c0.3,0,0.5,0.2,0.5,0.5v8c0,0.3-0.2,0.5-0.5,0.5h-0.4c-0.3,0-0.5-0.2-0.5-0.5v-1.3c-0.8,1.4-2.1,2-3.5,2
		C140.2,210.3,138.4,208.2,138.4,205.7z M146.5,205.7c0-2-1.4-3.5-3.4-3.5c-2.1,0-3.3,1.6-3.3,3.5s1.2,3.5,3.3,3.5
		C145.1,209.1,146.5,207.7,146.5,205.7z"/>
	<path class="st0" d="M150.8,209.7v-12c0-0.3,0.2-0.5,0.5-0.5h0.4c0.3,0,0.5,0.2,0.5,0.5v12c0,0.3-0.2,0.5-0.5,0.5h-0.4
		C151,210.2,150.8,210,150.8,209.7z"/>
	<path class="st0" d="M159.3,205.7c0-2.6,2-4.7,4.8-4.7c2.2,0,4.2,1.3,4.5,4.2c0.1,0.3-0.1,0.5-0.5,0.5h-7.4c-0.1,2,1.4,3.5,3.7,3.5
		c1,0,1.9-0.3,2.7-0.9c0.2-0.2,0.5-0.1,0.7,0.1l0.1,0.1c0.2,0.2,0.2,0.5-0.1,0.8c-1,0.9-2.3,1.2-3.4,1.2
		C161.2,210.3,159.3,208.2,159.3,205.7z M167.2,204.6c-0.4-1.9-1.8-2.4-3.1-2.4c-1.4,0-2.8,0.7-3.3,2.4H167.2z"/>
	<path class="st0" d="M169.7,209.6l3.5-4.1l-3.1-3.7c-0.3-0.3-0.1-0.6,0.3-0.6h0.4c0.3,0,0.4,0.1,0.6,0.3l2.7,3.2l2.7-3.2
		c0.2-0.2,0.3-0.3,0.6-0.3h0.4c0.4,0,0.5,0.3,0.3,0.6l-3.1,3.7l3.5,4.1c0.3,0.3,0.1,0.6-0.3,0.6h-0.5c-0.3,0-0.4-0.1-0.6-0.3l-3-3.6
		l-3,3.6c-0.2,0.2-0.3,0.3-0.6,0.3H170C169.5,210.2,169.4,209.9,169.7,209.6z"/>
	<path class="st0" d="M180.5,213.7v-12c0-0.3,0.2-0.5,0.5-0.5h0.4c0.3,0,0.5,0.2,0.5,0.5v1.3c0.8-1.4,2.1-2,3.5-2
		c2.7,0,4.5,2.1,4.5,4.7c0,2.6-1.7,4.7-4.5,4.7c-1.5,0-2.7-0.6-3.5-2v5.3c0,0.3-0.2,0.5-0.5,0.5H181
		C180.7,214.2,180.5,214,180.5,213.7z M188.5,205.7c0-1.9-1.2-3.5-3.3-3.5c-2,0-3.4,1.5-3.4,3.5s1.4,3.5,3.4,3.5
		C187.3,209.1,188.5,207.5,188.5,205.7z"/>
	<path class="st0" d="M191.4,205.7c0-2.6,2-4.7,4.8-4.7c2.2,0,4.2,1.3,4.5,4.2c0.1,0.3-0.1,0.5-0.5,0.5h-7.4c-0.1,2,1.4,3.5,3.7,3.5
		c1,0,1.9-0.3,2.7-0.9c0.2-0.2,0.5-0.1,0.7,0.1l0.1,0.1c0.2,0.2,0.2,0.5-0.1,0.8c-1,0.9-2.3,1.2-3.4,1.2
		C193.4,210.3,191.4,208.2,191.4,205.7z M199.3,204.6c-0.4-1.9-1.8-2.4-3.1-2.4c-1.4,0-2.8,0.7-3.3,2.4H199.3z"/>
	<path class="st0" d="M202.8,209.7v-8c0-0.3,0.2-0.5,0.5-0.5h0.4c0.3,0,0.5,0.2,0.5,0.5v1.4c0.5-1.4,1.8-2.1,3.1-2.1
		c1.9,0,3.6,1.1,3.6,4.1v4.6c0,0.3-0.2,0.5-0.5,0.5H210c-0.3,0-0.5-0.2-0.5-0.5v-4.6c0-2.2-1.1-2.9-2.3-2.9c-1,0-3,0.7-3,3.6v3.9
		c0,0.3-0.2,0.5-0.5,0.5h-0.4C203,210.2,202.8,210,202.8,209.7z"/>
	<path class="st0" d="M213,208.7c-0.2-0.3,0-0.5,0.3-0.6l0.3-0.1c0.3-0.1,0.4,0,0.6,0.3c0.4,0.6,1.1,0.9,1.9,0.9
		c1,0,1.8-0.6,1.8-1.4c0-0.7-0.5-1.1-1.3-1.4l-1.3-0.4c-1.3-0.4-2.1-1.1-2.1-2.4c0-1.4,1.1-2.6,2.9-2.6c1,0,2.1,0.4,2.6,1.5
		c0.2,0.3,0,0.5-0.3,0.6l-0.3,0.1c-0.3,0.1-0.4,0-0.6-0.3c-0.3-0.5-0.8-0.7-1.4-0.7c-1,0-1.6,0.7-1.6,1.4s0.6,1.1,1.2,1.3l1.3,0.4
		c1.6,0.5,2.1,1.5,2.1,2.5c0,1.6-1.4,2.6-3.1,2.6C214.8,210.3,213.6,209.8,213,208.7z"/>
	<path class="st0" d="M220.7,205.7c0-2.6,2-4.7,4.8-4.7c2.2,0,4.2,1.3,4.5,4.2c0.1,0.3-0.1,0.5-0.5,0.5h-7.4c-0.1,2,1.4,3.5,3.7,3.5
		c1,0,1.9-0.3,2.7-0.9c0.2-0.2,0.5-0.1,0.7,0.1l0.1,0.1c0.2,0.2,0.2,0.5-0.1,0.8c-1,0.9-2.3,1.2-3.4,1.2
		C222.6,210.3,220.7,208.2,220.7,205.7z M228.6,204.6c-0.4-1.9-1.8-2.4-3.1-2.4c-1.4,0-2.8,0.7-3.3,2.4H228.6z"/>
	<path class="st0" d="M231.4,208.7c-0.2-0.3,0-0.5,0.3-0.6l0.3-0.1c0.3-0.1,0.4,0,0.6,0.3c0.4,0.6,1.1,0.9,1.9,0.9
		c1,0,1.8-0.6,1.8-1.4c0-0.7-0.5-1.1-1.3-1.4l-1.3-0.4c-1.3-0.4-2.1-1.1-2.1-2.4c0-1.4,1.1-2.6,2.9-2.6c1,0,2.1,0.4,2.6,1.5
		c0.2,0.3,0,0.5-0.3,0.6l-0.3,0.1c-0.3,0.1-0.4,0-0.6-0.3c-0.3-0.5-0.8-0.7-1.4-0.7c-1,0-1.6,0.7-1.6,1.4s0.6,1.1,1.2,1.3l1.3,0.4
		c1.6,0.5,2.1,1.5,2.1,2.5c0,1.6-1.4,2.6-3.1,2.6C233.2,210.3,232,209.8,231.4,208.7z"/>
	<path class="st0" d="M94.9,241.4c0,2.1-1.4,3.8-3.7,3.8h-3.5v4.4c0,0.3-0.2,0.5-0.5,0.5h-0.5c-0.3,0-0.5-0.2-0.5-0.5V238
		c0-0.3,0.2-0.5,0.5-0.5h4.4C93.5,237.5,94.9,239.3,94.9,241.4z M93.4,241.4c0-1.5-0.9-2.7-2.5-2.7h-3.2v5.4h3.2
		C92.4,244.1,93.4,242.9,93.4,241.4z"/>
	<path class="st0" d="M95.9,245.7c0-2.6,2-4.7,4.8-4.7c2.2,0,4.2,1.3,4.5,4.2c0.1,0.3-0.1,0.5-0.5,0.5h-7.4c-0.1,2,1.4,3.5,3.7,3.5
		c1,0,1.9-0.3,2.7-0.9c0.2-0.2,0.5-0.1,0.7,0.1l0.1,0.1c0.2,0.2,0.2,0.5-0.1,0.8c-1,0.9-2.3,1.2-3.4,1.2
		C97.9,250.3,95.9,248.2,95.9,245.7z M103.8,244.6c-0.4-1.9-1.8-2.4-3.1-2.4c-1.4,0-2.8,0.7-3.3,2.4H103.8z"/>
	<path class="st0" d="M107.3,249.7v-8c0-0.3,0.2-0.5,0.5-0.5h0.4c0.3,0,0.5,0.2,0.5,0.5v1.7c0.3-1.5,1.3-2.4,2.6-2.4
		c0.1,0,0.3,0,0.4,0c0.3,0.1,0.3,0.3,0.3,0.5v0.4c0,0.3-0.1,0.5-0.4,0.4c-0.2,0-0.3,0-0.5,0c-1.2,0-2.5,1-2.5,4.4v2.9
		c0,0.3-0.2,0.5-0.5,0.5h-0.4C107.5,250.2,107.3,250,107.3,249.7z"/>
	<path class="st0" d="M113,248.7c-0.2-0.3,0-0.5,0.3-0.6l0.3-0.1c0.3-0.1,0.4,0,0.6,0.3c0.4,0.6,1.1,0.9,1.9,0.9
		c1,0,1.8-0.6,1.8-1.4c0-0.7-0.5-1.1-1.3-1.4l-1.3-0.4c-1.3-0.4-2.1-1.1-2.1-2.4c0-1.4,1.1-2.6,2.9-2.6c1,0,2.1,0.4,2.6,1.5
		c0.2,0.3,0,0.5-0.3,0.6l-0.3,0.1c-0.3,0.1-0.4,0-0.6-0.3c-0.3-0.5-0.8-0.7-1.4-0.7c-1,0-1.6,0.7-1.6,1.4s0.6,1.1,1.2,1.3l1.3,0.4
		c1.6,0.5,2.1,1.5,2.1,2.5c0,1.6-1.4,2.6-3.1,2.6C114.8,250.3,113.5,249.8,113,248.7z"/>
	<path class="st0" d="M120.7,245.7c0-2.6,2.1-4.7,4.7-4.7s4.7,2.1,4.7,4.7c0,2.6-2.1,4.7-4.7,4.7
		C122.8,250.3,120.7,248.3,120.7,245.7z M128.7,245.7c0-1.9-1.5-3.5-3.3-3.5s-3.3,1.6-3.3,3.5s1.5,3.4,3.3,3.4
		C127.2,249.1,128.7,247.6,128.7,245.7z"/>
	<path class="st0" d="M132.3,249.7v-8c0-0.3,0.2-0.5,0.5-0.5h0.4c0.3,0,0.5,0.2,0.5,0.5v1.4c0.5-1.4,1.8-2.1,3.1-2.1
		c1.9,0,3.6,1.1,3.6,4.1v4.6c0,0.3-0.2,0.5-0.5,0.5h-0.4c-0.3,0-0.5-0.2-0.5-0.5v-4.6c0-2.2-1.1-2.9-2.3-2.9c-1,0-3,0.7-3,3.6v3.9
		c0,0.3-0.2,0.5-0.5,0.5h-0.4C132.5,250.2,132.3,250,132.3,249.7z"/>
	<path class="st0" d="M142.5,245.7c0-2.6,1.7-4.7,4.5-4.7c1.5,0,2.7,0.6,3.5,2v-1.3c0-0.3,0.2-0.5,0.5-0.5h0.4
		c0.3,0,0.5,0.2,0.5,0.5v8c0,0.3-0.2,0.5-0.5,0.5H151c-0.3,0-0.5-0.2-0.5-0.5v-1.3c-0.8,1.4-2.1,2-3.5,2
		C144.2,250.3,142.5,248.2,142.5,245.7z M150.5,245.7c0-2-1.4-3.5-3.4-3.5c-2.1,0-3.3,1.6-3.3,3.5s1.2,3.5,3.3,3.5
		C149.1,249.1,150.5,247.7,150.5,245.7z"/>
	<path class="st0" d="M154.8,249.7v-12c0-0.3,0.2-0.5,0.5-0.5h0.4c0.3,0,0.5,0.2,0.5,0.5v12c0,0.3-0.2,0.5-0.5,0.5h-0.4
		C155,250.2,154.8,250,154.8,249.7z"/>
	<path class="st0" d="M164.1,249.7v-12c0-0.3,0.2-0.5,0.5-0.5h0.4c0.3,0,0.5,0.2,0.5,0.5v12c0,0.3-0.2,0.5-0.5,0.5h-0.4
		C164.2,250.2,164.1,250,164.1,249.7z"/>
	<path class="st0" d="M168.1,238.2c0-0.6,0.4-1,1-1s1,0.4,1,1s-0.4,1-1,1C168.6,239.2,168.1,238.8,168.1,238.2z M168.4,249.7v-8
		c0-0.3,0.2-0.5,0.5-0.5h0.4c0.3,0,0.5,0.2,0.5,0.5v8c0,0.3-0.2,0.5-0.5,0.5h-0.4C168.6,250.2,168.4,250,168.4,249.7z"/>
	<path class="st0" d="M172.1,245.7c0-2.6,1.7-4.7,4.5-4.7c1.5,0,2.7,0.6,3.5,2v-1.3c0-0.3,0.2-0.5,0.5-0.5h0.4
		c0.3,0,0.5,0.2,0.5,0.5v8c0,0.3-0.2,0.5-0.5,0.5h-0.4c-0.3,0-0.5-0.2-0.5-0.5v-1.3c-0.8,1.4-2.1,2-3.5,2
		C173.9,250.3,172.1,248.2,172.1,245.7z M180.1,245.7c0-2-1.4-3.5-3.4-3.5c-2.1,0-3.3,1.6-3.3,3.5s1.2,3.5,3.3,3.5
		C178.7,249.1,180.1,247.7,180.1,245.7z"/>
	<path class="st0" d="M185.8,248.4v1.3c0,0.3-0.2,0.5-0.5,0.5h-0.4c-0.3,0-0.5-0.2-0.5-0.5v-12c0-0.3,0.2-0.5,0.5-0.5h0.4
		c0.3,0,0.5,0.2,0.5,0.5v5.3c0.8-1.4,2.1-2,3.5-2c2.7,0,4.5,2.1,4.5,4.7c0,2.6-1.8,4.7-4.5,4.7C187.8,250.3,186.6,249.8,185.8,248.4
		z M192.4,245.7c0-1.9-1.2-3.5-3.3-3.5c-2,0-3.4,1.4-3.4,3.5c0,2,1.4,3.5,3.4,3.5C191.2,249.1,192.4,247.6,192.4,245.7z"/>
	<path class="st0" d="M195.8,238.2c0-0.6,0.4-1,1-1s1,0.4,1,1s-0.4,1-1,1S195.8,238.8,195.8,238.2z M196.1,249.7v-8
		c0-0.3,0.2-0.5,0.5-0.5h0.4c0.3,0,0.5,0.2,0.5,0.5v8c0,0.3-0.2,0.5-0.5,0.5h-0.4C196.2,250.2,196.1,250,196.1,249.7z"/>
	<path class="st0" d="M200.4,249.7v-12c0-0.3,0.2-0.5,0.5-0.5h0.4c0.3,0,0.5,0.2,0.5,0.5v12c0,0.3-0.2,0.5-0.5,0.5h-0.4
		C200.6,250.2,200.4,250,200.4,249.7z"/>
	<path class="st0" d="M204.5,238.2c0-0.6,0.4-1,1-1s1,0.4,1,1s-0.4,1-1,1S204.5,238.8,204.5,238.2z M204.8,249.7v-8
		c0-0.3,0.2-0.5,0.5-0.5h0.4c0.3,0,0.5,0.2,0.5,0.5v8c0,0.3-0.2,0.5-0.5,0.5h-0.4C205,250.2,204.8,250,204.8,249.7z"/>
	<path class="st0" d="M209.6,247.3v-5.1h-1.2c-0.2,0-0.3-0.1-0.3-0.3v-0.5c0-0.2,0.1-0.3,0.3-0.3h1.2l0.3-2.3c0-0.3,0.2-0.4,0.5-0.4
		h0.2c0.3,0,0.4,0.1,0.4,0.4v2.3h2.6c0.2,0,0.3,0.1,0.3,0.3v0.5c0,0.2-0.1,0.3-0.3,0.3H211v5.2c0,1.3,0.6,1.7,1.3,1.7
		s1.3-0.4,1.3-1.2c0-0.1,0-0.2,0-0.3c0-0.2,0.1-0.3,0.3-0.3h0.6c0.2,0,0.3,0.1,0.3,0.2c0.1,0.3,0.1,0.6,0.1,0.6
		c0,1.2-0.9,2.2-2.5,2.2C210.9,250.3,209.6,249.7,209.6,247.3z"/>
	<path class="st0" d="M217.5,253.6l1.4-3.6l-3.6-8.3c-0.1-0.3,0-0.6,0.4-0.6h0.6c0.3,0,0.5,0.1,0.5,0.4l2.9,6.9l2.7-6.9
		c0.1-0.3,0.3-0.4,0.6-0.4h0.6c0.4,0,0.5,0.2,0.4,0.6l-5.1,12.1c-0.1,0.3-0.3,0.4-0.6,0.4H218C217.6,254.2,217.4,254,217.5,253.6z"
		/>
	<path class="st0" d="M87.6,278.7v4.7h5.1c0.3,0,0.5,0.2,0.5,0.5v0.2c0,0.3-0.2,0.5-0.5,0.5h-5.1v4.4h6c0.3,0,0.5,0.2,0.5,0.5v0.2
		c0,0.3-0.2,0.5-0.5,0.5h-6.9c-0.3,0-0.5-0.2-0.5-0.5V278c0-0.3,0.2-0.5,0.5-0.5h6.9c0.3,0,0.5,0.2,0.5,0.5v0.2
		c0,0.3-0.2,0.5-0.5,0.5H87.6z"/>
	<path class="st0" d="M96.4,289.7v-8c0-0.3,0.2-0.5,0.5-0.5h0.4c0.3,0,0.5,0.2,0.5,0.5v1.4c0.5-1.4,1.8-2.1,3-2.1
		c1.1,0,2.4,0.4,3.1,2.1c0.7-1.7,2.1-2.1,3.2-2.1c2.1,0,3.5,1.1,3.5,4.1v4.6c0,0.3-0.2,0.5-0.5,0.5h-0.4c-0.3,0-0.5-0.2-0.5-0.5
		v-4.6c0-2.2-1.1-2.9-2.3-2.9c-0.9,0-2.7,0.6-2.8,3.5v4c0,0.3-0.2,0.5-0.5,0.5h-0.4c-0.3,0-0.5-0.2-0.5-0.5v-4.6
		c0-2.2-1.1-2.9-2.3-2.9c-1,0-2.7,0.7-2.8,3.6v3.9c0,0.3-0.2,0.5-0.5,0.5h-0.4C96.6,290.2,96.4,290,96.4,289.7z"/>
	<path class="st0" d="M112.6,285.7c0-2.6,2-4.7,4.8-4.7c2.2,0,4.2,1.3,4.5,4.2c0.1,0.3-0.1,0.5-0.5,0.5H114c-0.1,2,1.4,3.5,3.7,3.5
		c1,0,1.9-0.3,2.7-0.9c0.2-0.2,0.5-0.1,0.7,0.1l0.1,0.1c0.2,0.2,0.2,0.5-0.1,0.8c-1,0.9-2.3,1.2-3.4,1.2
		C114.6,290.3,112.6,288.2,112.6,285.7z M120.5,284.6c-0.4-1.9-1.8-2.4-3.1-2.4c-1.4,0-2.8,0.7-3.3,2.4H120.5z"/>
	<path class="st0" d="M124,289.7v-8c0-0.3,0.2-0.5,0.5-0.5h0.4c0.3,0,0.5,0.2,0.5,0.5v1.7c0.3-1.5,1.3-2.4,2.6-2.4
		c0.1,0,0.3,0,0.4,0c0.3,0.1,0.3,0.3,0.3,0.5v0.4c0,0.3-0.1,0.5-0.4,0.4c-0.2,0-0.3,0-0.5,0c-1.2,0-2.5,1-2.5,4.4v2.9
		c0,0.3-0.2,0.5-0.5,0.5h-0.4C124.2,290.2,124,290,124,289.7z"/>
	<path class="st0" d="M130.7,293.4c-0.2-0.2-0.3-0.4-0.1-0.7l0.1-0.2c0.1-0.3,0.4-0.3,0.6-0.1c0.9,0.6,1.8,0.8,2.8,0.8
		c1.9,0,3.3-1.2,3.3-3.2v-1.5c-0.8,1.4-2.1,2-3.5,2c-2.7,0-4.5-2.1-4.5-4.7s1.7-4.7,4.5-4.7c1.5,0,2.7,0.6,3.5,2v-1.3
		c0-0.3,0.2-0.5,0.5-0.5h0.4c0.3,0,0.5,0.2,0.5,0.5v8.4c0,2.9-2.1,4.3-4.6,4.3C132.6,294.4,131.6,294,130.7,293.4z M137.5,285.7
		c0-2-1.4-3.5-3.4-3.5c-2.1,0-3.3,1.6-3.3,3.5s1.2,3.5,3.3,3.5C136,289.1,137.5,287.7,137.5,285.7z"/>
	<path class="st0" d="M141,285.7c0-2.6,2-4.7,4.8-4.7c2.2,0,4.2,1.3,4.5,4.2c0.1,0.3-0.1,0.5-0.5,0.5h-7.4c-0.1,2,1.4,3.5,3.7,3.5
		c1,0,1.9-0.3,2.7-0.9c0.2-0.2,0.5-0.1,0.7,0.1l0.1,0.1c0.2,0.2,0.2,0.5-0.1,0.8c-1,0.9-2.3,1.2-3.4,1.2
		C142.9,290.3,141,288.2,141,285.7z M148.9,284.6c-0.4-1.9-1.8-2.4-3.1-2.4c-1.4,0-2.8,0.7-3.3,2.4H148.9z"/>
	<path class="st0" d="M152.4,289.7v-8c0-0.3,0.2-0.5,0.5-0.5h0.4c0.3,0,0.5,0.2,0.5,0.5v1.4c0.5-1.4,1.8-2.1,3.1-2.1
		c1.9,0,3.6,1.1,3.6,4.1v4.6c0,0.3-0.2,0.5-0.5,0.5h-0.4c-0.3,0-0.5-0.2-0.5-0.5v-4.6c0-2.2-1.1-2.9-2.3-2.9c-1,0-3,0.7-3,3.6v3.9
		c0,0.3-0.2,0.5-0.5,0.5h-0.4C152.6,290.2,152.4,290,152.4,289.7z"/>
	<path class="st0" d="M162.5,285.7c0-2.6,1.8-4.8,5.1-4.8c0.7,0,1.7,0.2,2.8,0.8c0.3,0.2,0.3,0.4,0.1,0.7l-0.1,0.2
		c-0.2,0.3-0.4,0.3-0.7,0.1c-0.9-0.5-1.7-0.5-2.1-0.5c-2.2,0-3.7,1.5-3.7,3.5s1.5,3.5,3.7,3.5c0.3,0,1.2-0.1,2.1-0.5
		c0.3-0.1,0.5-0.1,0.7,0.1l0.1,0.2c0.2,0.3,0.1,0.6-0.4,0.8c-1,0.5-1.9,0.6-2.5,0.6C164.4,290.3,162.5,288.3,162.5,285.7z"/>
	<path class="st0" d="M174.1,293.6l1.4-3.6l-3.6-8.3c-0.1-0.3,0-0.6,0.4-0.6h0.6c0.3,0,0.5,0.1,0.5,0.4l2.9,6.9l2.7-6.9
		c0.1-0.3,0.3-0.4,0.6-0.4h0.6c0.4,0,0.5,0.2,0.4,0.6l-5.1,12.1c-0.1,0.3-0.3,0.4-0.6,0.4h-0.3C174.1,294.2,174,294,174.1,293.6z"/>
	<path class="st0" d="M186.2,285.7c0-2.6,1.7-4.7,4.5-4.7c1.5,0,2.7,0.6,3.5,2v-1.3c0-0.3,0.2-0.5,0.5-0.5h0.4
		c0.3,0,0.5,0.2,0.5,0.5v8c0,0.3-0.2,0.5-0.5,0.5h-0.4c-0.3,0-0.5-0.2-0.5-0.5v-1.3c-0.8,1.4-2.1,2-3.5,2
		C188,290.3,186.2,288.2,186.2,285.7z M194.2,285.7c0-2-1.4-3.5-3.4-3.5c-2.1,0-3.3,1.6-3.3,3.5s1.2,3.5,3.3,3.5
		C192.8,289.1,194.2,287.7,194.2,285.7z"/>
	<path class="st0" d="M197.8,288.7c-0.2-0.3,0-0.5,0.3-0.6l0.3-0.1c0.3-0.1,0.4,0,0.6,0.3c0.4,0.6,1.1,0.9,1.9,0.9
		c1,0,1.8-0.6,1.8-1.4c0-0.7-0.5-1.1-1.3-1.4l-1.3-0.4c-1.3-0.4-2.1-1.1-2.1-2.4c0-1.4,1.1-2.6,2.9-2.6c1,0,2.1,0.4,2.6,1.5
		c0.2,0.3,0,0.5-0.3,0.6l-0.3,0.1c-0.3,0.1-0.4,0-0.6-0.3c-0.3-0.5-0.8-0.7-1.4-0.7c-1,0-1.6,0.7-1.6,1.4c0,0.7,0.6,1.1,1.2,1.3
		l1.3,0.4c1.6,0.5,2.1,1.5,2.1,2.5c0,1.6-1.4,2.6-3.1,2.6C199.6,290.3,198.4,289.8,197.8,288.7z"/>
	<path class="st0" d="M205.6,288.7c-0.2-0.3,0-0.5,0.3-0.6l0.3-0.1c0.3-0.1,0.4,0,0.6,0.3c0.4,0.6,1.1,0.9,1.9,0.9
		c1,0,1.8-0.6,1.8-1.4c0-0.7-0.5-1.1-1.3-1.4L208,286c-1.3-0.4-2.1-1.1-2.1-2.4c0-1.4,1.1-2.6,2.9-2.6c1,0,2.1,0.4,2.6,1.5
		c0.2,0.3,0,0.5-0.3,0.6l-0.3,0.1c-0.3,0.1-0.4,0-0.6-0.3c-0.3-0.5-0.8-0.7-1.4-0.7c-1,0-1.6,0.7-1.6,1.4c0,0.7,0.6,1.1,1.2,1.3
		l1.3,0.4c1.6,0.5,2.1,1.5,2.1,2.5c0,1.6-1.4,2.6-3.1,2.6C207.3,290.3,206.1,289.8,205.6,288.7z"/>
	<path class="st0" d="M213.7,278.2c0-0.6,0.4-1,1-1s1,0.4,1,1s-0.4,1-1,1C214.1,279.2,213.7,278.8,213.7,278.2z M214,289.7v-8
		c0-0.3,0.2-0.5,0.5-0.5h0.4c0.3,0,0.5,0.2,0.5,0.5v8c0,0.3-0.2,0.5-0.5,0.5h-0.4C214.2,290.2,214,290,214,289.7z"/>
	<path class="st0" d="M217.7,288.7c-0.2-0.3,0-0.5,0.3-0.6l0.3-0.1c0.3-0.1,0.4,0,0.6,0.3c0.4,0.6,1.1,0.9,1.9,0.9
		c1,0,1.8-0.6,1.8-1.4c0-0.7-0.5-1.1-1.3-1.4L220,286c-1.3-0.4-2.1-1.1-2.1-2.4c0-1.4,1.1-2.6,2.9-2.6c1,0,2.1,0.4,2.6,1.5
		c0.2,0.3,0,0.5-0.3,0.6l-0.3,0.1c-0.3,0.1-0.4,0-0.6-0.3c-0.3-0.5-0.8-0.7-1.4-0.7c-1,0-1.6,0.7-1.6,1.4c0,0.7,0.6,1.1,1.2,1.3
		l1.3,0.4c1.6,0.5,2.1,1.5,2.1,2.5c0,1.6-1.4,2.6-3.1,2.6C219.5,290.3,218.3,289.8,217.7,288.7z"/>
	<path class="st0" d="M226.5,287.3v-5.1h-1.2c-0.2,0-0.3-0.1-0.3-0.3v-0.5c0-0.2,0.1-0.3,0.3-0.3h1.2l0.3-2.3c0-0.3,0.2-0.4,0.5-0.4
		h0.2c0.3,0,0.4,0.1,0.4,0.4v2.3h2.6c0.2,0,0.3,0.1,0.3,0.3v0.5c0,0.2-0.1,0.3-0.3,0.3h-2.6v5.2c0,1.3,0.6,1.7,1.3,1.7
		s1.3-0.4,1.3-1.2c0-0.1,0-0.2,0-0.3c0-0.2,0.1-0.3,0.3-0.3h0.6c0.2,0,0.3,0.1,0.3,0.2c0.1,0.3,0.1,0.6,0.1,0.6
		c0,1.2-0.9,2.2-2.5,2.2C227.8,290.3,226.5,289.7,226.5,287.3z"/>
	<path class="st0" d="M232.7,285.7c0-2.6,1.7-4.7,4.5-4.7c1.5,0,2.7,0.6,3.5,2v-1.3c0-0.3,0.2-0.5,0.5-0.5h0.4
		c0.3,0,0.5,0.2,0.5,0.5v8c0,0.3-0.2,0.5-0.5,0.5h-0.4c-0.3,0-0.5-0.2-0.5-0.5v-1.3c-0.8,1.4-2.1,2-3.5,2
		C234.5,290.3,232.7,288.2,232.7,285.7z M240.7,285.7c0-2-1.4-3.5-3.4-3.5c-2.1,0-3.3,1.6-3.3,3.5s1.2,3.5,3.3,3.5
		C239.3,289.1,240.7,287.7,240.7,285.7z"/>
	<path class="st0" d="M245,289.7v-8c0-0.3,0.2-0.5,0.5-0.5h0.4c0.3,0,0.5,0.2,0.5,0.5v1.4c0.5-1.4,1.8-2.1,3.1-2.1
		c1.9,0,3.6,1.1,3.6,4.1v4.6c0,0.3-0.2,0.5-0.5,0.5h-0.4c-0.3,0-0.5-0.2-0.5-0.5v-4.6c0-2.2-1.1-2.9-2.3-2.9c-1,0-3,0.7-3,3.6v3.9
		c0,0.3-0.2,0.5-0.5,0.5h-0.4C245.2,290.2,245,290,245,289.7z"/>
	<path class="st0" d="M255.1,285.7c0-2.6,1.8-4.8,5.1-4.8c0.7,0,1.7,0.2,2.8,0.8c0.3,0.2,0.3,0.4,0.1,0.7l-0.1,0.2
		c-0.2,0.3-0.4,0.3-0.7,0.1c-0.9-0.5-1.7-0.5-2.1-0.5c-2.2,0-3.7,1.5-3.7,3.5s1.5,3.5,3.7,3.5c0.3,0,1.2-0.1,2.1-0.5
		c0.3-0.1,0.5-0.1,0.7,0.1l0.1,0.2c0.2,0.3,0.1,0.6-0.4,0.8c-1,0.5-1.9,0.6-2.5,0.6C257,290.3,255.1,288.3,255.1,285.7z"/>
	<path class="st0" d="M264.5,285.7c0-2.6,2-4.7,4.8-4.7c2.2,0,4.2,1.3,4.5,4.2c0.1,0.3-0.1,0.5-0.5,0.5h-7.4c-0.1,2,1.4,3.5,3.7,3.5
		c1,0,1.9-0.3,2.7-0.9c0.2-0.2,0.5-0.1,0.7,0.1l0.1,0.1c0.2,0.2,0.2,0.5-0.1,0.8c-1,0.9-2.3,1.2-3.4,1.2
		C266.4,290.3,264.5,288.2,264.5,285.7z M272.4,284.6c-0.4-1.9-1.8-2.4-3.1-2.4c-1.4,0-2.8,0.7-3.3,2.4H272.4z"/>
	<path class="st0" d="M86.2,329.7V318c0-0.3,0.2-0.5,0.5-0.5h0.5c0.3,0,0.5,0.2,0.5,0.5v11H93c0.3,0,0.5,0.2,0.5,0.5v0.2
		c0,0.3-0.2,0.5-0.5,0.5h-6.4C86.4,330.2,86.2,330,86.2,329.7z"/>
	<path class="st0" d="M94.1,325.7c0-2.6,2.1-4.7,4.7-4.7s4.7,2.1,4.7,4.7s-2.1,4.7-4.7,4.7C96.2,330.3,94.1,328.3,94.1,325.7z
		 M102.1,325.7c0-1.9-1.5-3.5-3.3-3.5s-3.3,1.6-3.3,3.5s1.5,3.4,3.3,3.4S102.1,327.6,102.1,325.7z"/>
	<path class="st0" d="M105,328.7c-0.2-0.3,0-0.5,0.3-0.6l0.3-0.1c0.3-0.1,0.4,0,0.6,0.3c0.4,0.6,1.1,0.9,1.9,0.9
		c1,0,1.8-0.6,1.8-1.4c0-0.7-0.5-1.1-1.3-1.4l-1.3-0.4c-1.3-0.4-2.1-1.1-2.1-2.4c0-1.4,1.1-2.6,2.9-2.6c1,0,2.1,0.4,2.6,1.5
		c0.2,0.3,0,0.5-0.3,0.6l-0.3,0.1c-0.3,0.1-0.4,0-0.6-0.3c-0.3-0.5-0.8-0.7-1.4-0.7c-1,0-1.6,0.7-1.6,1.4c0,0.7,0.6,1.1,1.2,1.3
		l1.3,0.4c1.6,0.5,2.1,1.5,2.1,2.5c0,1.6-1.4,2.6-3.1,2.6C106.8,330.3,105.6,329.8,105,328.7z"/>
	<path class="st0" d="M113.8,327.3v-5.1h-1.2c-0.2,0-0.3-0.1-0.3-0.3v-0.5c0-0.2,0.1-0.3,0.3-0.3h1.2l0.3-2.3c0-0.3,0.2-0.4,0.5-0.4
		h0.2c0.3,0,0.4,0.1,0.4,0.4v2.3h2.6c0.2,0,0.3,0.1,0.3,0.3v0.5c0,0.2-0.1,0.3-0.3,0.3h-2.6v5.2c0,1.3,0.6,1.7,1.3,1.7
		c0.7,0,1.3-0.4,1.3-1.2c0-0.1,0-0.2,0-0.3c0-0.2,0.1-0.3,0.3-0.3h0.6c0.2,0,0.3,0.1,0.3,0.2c0.1,0.3,0.1,0.6,0.1,0.6
		c0,1.2-0.9,2.2-2.5,2.2C115.1,330.3,113.8,329.7,113.8,327.3z"/>
	<path class="st0" d="M126.9,328.4v1.3c0,0.3-0.2,0.5-0.5,0.5H126c-0.3,0-0.5-0.2-0.5-0.5v-12c0-0.3,0.2-0.5,0.5-0.5h0.4
		c0.3,0,0.5,0.2,0.5,0.5v5.3c0.8-1.4,2.1-2,3.5-2c2.7,0,4.5,2.1,4.5,4.7s-1.8,4.7-4.5,4.7C129,330.3,127.7,329.8,126.9,328.4z
		 M133.6,325.7c0-1.9-1.2-3.5-3.3-3.5c-2,0-3.4,1.4-3.4,3.5c0,2,1.4,3.5,3.4,3.5C132.4,329.1,133.6,327.6,133.6,325.7z"/>
	<path class="st0" d="M136.5,325.7c0-2.6,1.7-4.7,4.5-4.7c1.5,0,2.7,0.6,3.5,2v-1.3c0-0.3,0.2-0.5,0.5-0.5h0.4
		c0.3,0,0.5,0.2,0.5,0.5v8c0,0.3-0.2,0.5-0.5,0.5H145c-0.3,0-0.5-0.2-0.5-0.5v-1.3c-0.8,1.4-2.1,2-3.5,2
		C138.3,330.3,136.5,328.2,136.5,325.7z M144.5,325.7c0-2-1.4-3.5-3.4-3.5c-2.1,0-3.3,1.6-3.3,3.5s1.2,3.5,3.3,3.5
		C143.1,329.1,144.5,327.7,144.5,325.7z"/>
	<path class="st0" d="M149.4,333.4c-0.2-0.2-0.3-0.4-0.1-0.7l0.1-0.2c0.1-0.3,0.4-0.3,0.6-0.1c0.9,0.6,1.8,0.8,2.8,0.8
		c1.9,0,3.3-1.2,3.3-3.2v-1.5c-0.8,1.4-2.1,2-3.5,2c-2.7,0-4.5-2.1-4.5-4.7s1.7-4.7,4.5-4.7c1.5,0,2.7,0.6,3.5,2v-1.3
		c0-0.3,0.2-0.5,0.5-0.5h0.4c0.3,0,0.5,0.2,0.5,0.5v8.4c0,2.9-2.1,4.3-4.6,4.3C151.3,334.4,150.3,334,149.4,333.4z M156.1,325.7
		c0-2-1.4-3.5-3.4-3.5c-2.1,0-3.3,1.6-3.3,3.5s1.2,3.5,3.3,3.5C154.7,329.1,156.1,327.7,156.1,325.7z"/>
	<path class="st0" d="M161,333.4c-0.2-0.2-0.3-0.4-0.1-0.7l0.1-0.2c0.1-0.3,0.4-0.3,0.6-0.1c0.9,0.6,1.8,0.8,2.8,0.8
		c1.9,0,3.3-1.2,3.3-3.2v-1.5c-0.8,1.4-2.1,2-3.5,2c-2.7,0-4.5-2.1-4.5-4.7s1.7-4.7,4.5-4.7c1.5,0,2.7,0.6,3.5,2v-1.3
		c0-0.3,0.2-0.5,0.5-0.5h0.4c0.3,0,0.5,0.2,0.5,0.5v8.4c0,2.9-2.1,4.3-4.6,4.3C162.9,334.4,161.9,334,161,333.4z M167.7,325.7
		c0-2-1.4-3.5-3.4-3.5c-2.1,0-3.3,1.6-3.3,3.5s1.2,3.5,3.3,3.5C166.3,329.1,167.7,327.7,167.7,325.7z"/>
	<path class="st0" d="M171.3,325.7c0-2.6,1.7-4.7,4.5-4.7c1.5,0,2.7,0.6,3.5,2v-1.3c0-0.3,0.2-0.5,0.5-0.5h0.4
		c0.3,0,0.5,0.2,0.5,0.5v8c0,0.3-0.2,0.5-0.5,0.5h-0.4c-0.3,0-0.5-0.2-0.5-0.5v-1.3c-0.8,1.4-2.1,2-3.5,2
		C173.1,330.3,171.3,328.2,171.3,325.7z M179.3,325.7c0-2-1.4-3.5-3.4-3.5c-2.1,0-3.3,1.6-3.3,3.5s1.2,3.5,3.3,3.5
		C177.9,329.1,179.3,327.7,179.3,325.7z"/>
	<path class="st0" d="M184.2,333.4c-0.2-0.2-0.3-0.4-0.1-0.7l0.1-0.2c0.1-0.3,0.4-0.3,0.6-0.1c0.9,0.6,1.8,0.8,2.8,0.8
		c1.9,0,3.3-1.2,3.3-3.2v-1.5c-0.8,1.4-2.1,2-3.5,2c-2.7,0-4.5-2.1-4.5-4.7s1.7-4.7,4.5-4.7c1.5,0,2.7,0.6,3.5,2v-1.3
		c0-0.3,0.2-0.5,0.5-0.5h0.4c0.3,0,0.5,0.2,0.5,0.5v8.4c0,2.9-2.1,4.3-4.6,4.3C186.1,334.4,185.1,334,184.2,333.4z M190.9,325.7
		c0-2-1.4-3.5-3.4-3.5c-2.1,0-3.3,1.6-3.3,3.5s1.2,3.5,3.3,3.5C189.5,329.1,190.9,327.7,190.9,325.7z"/>
	<path class="st0" d="M194.5,325.7c0-2.6,2-4.7,4.8-4.7c2.2,0,4.2,1.3,4.5,4.2c0.1,0.3-0.1,0.5-0.5,0.5h-7.4c-0.1,2,1.4,3.5,3.7,3.5
		c1,0,1.9-0.3,2.7-0.9c0.2-0.2,0.5-0.1,0.7,0.1l0.1,0.1c0.2,0.2,0.2,0.5-0.1,0.8c-1,0.9-2.3,1.2-3.4,1.2
		C196.4,330.3,194.5,328.2,194.5,325.7z M202.4,324.6c-0.4-1.9-1.8-2.4-3.1-2.4c-1.4,0-2.8,0.7-3.3,2.4H202.4z"/>
</g>
<g>
	<path class="st0" d="M352.9,162.4c0,2.1-1.4,3.8-3.7,3.8h-3.5v4.4c0,0.3-0.2,0.5-0.5,0.5h-0.5c-0.3,0-0.5-0.2-0.5-0.5V159
		c0-0.3,0.2-0.5,0.5-0.5h4.4C351.6,158.5,352.9,160.3,352.9,162.4z M351.5,162.4c0-1.5-0.9-2.7-2.5-2.7h-3.2v5.4h3.2
		C350.5,165.1,351.5,163.9,351.5,162.4z"/>
	<path class="st0" d="M354.9,170.7v-8c0-0.3,0.2-0.5,0.5-0.5h0.4c0.3,0,0.5,0.2,0.5,0.5v1.7c0.3-1.5,1.3-2.4,2.6-2.4
		c0.1,0,0.3,0,0.4,0c0.3,0.1,0.3,0.3,0.3,0.5v0.4c0,0.3-0.1,0.5-0.4,0.4c-0.2,0-0.3,0-0.5,0c-1.2,0-2.5,1-2.5,4.4v2.9
		c0,0.3-0.2,0.5-0.5,0.5h-0.4C355.1,171.2,354.9,171,354.9,170.7z"/>
	<path class="st0" d="M360.3,166.7c0-2.6,2-4.7,4.8-4.7c2.2,0,4.2,1.3,4.5,4.2c0.1,0.3-0.1,0.5-0.5,0.5h-7.4c-0.1,2,1.4,3.5,3.7,3.5
		c1,0,1.9-0.3,2.7-0.9c0.2-0.2,0.5-0.1,0.7,0.1l0.1,0.1c0.2,0.2,0.2,0.5-0.1,0.8c-1,0.9-2.3,1.2-3.4,1.2
		C362.2,171.3,360.3,169.2,360.3,166.7z M368.2,165.6c-0.4-1.9-1.8-2.4-3.1-2.4c-1.4,0-2.8,0.7-3.3,2.4H368.2z"/>
	<path class="st0" d="M371.4,166v-0.7c0-0.2,0.1-0.3,0.3-0.3h5.1c0.2,0,0.3,0.1,0.3,0.3v0.7c0,0.2-0.1,0.3-0.3,0.3h-5.1
		C371.6,166.3,371.4,166.2,371.4,166z"/>
	<path class="st0" d="M379.2,166.7c0-2.6,2-4.7,4.8-4.7c2.2,0,4.2,1.3,4.5,4.2c0.1,0.3-0.1,0.5-0.5,0.5h-7.4c-0.1,2,1.4,3.5,3.7,3.5
		c1,0,1.9-0.3,2.7-0.9c0.2-0.2,0.5-0.1,0.7,0.1l0.1,0.1c0.2,0.2,0.2,0.5-0.1,0.8c-1,0.9-2.3,1.2-3.4,1.2
		C381.1,171.3,379.2,169.2,379.2,166.7z M387.1,165.6c-0.4-1.9-1.8-2.4-3.1-2.4c-1.4,0-2.8,0.7-3.3,2.4H387.1z"/>
	<path class="st0" d="M389.5,170.6l3.5-4.1l-3.1-3.7c-0.3-0.3-0.1-0.6,0.3-0.6h0.4c0.3,0,0.4,0.1,0.6,0.3l2.7,3.2l2.7-3.2
		c0.2-0.2,0.3-0.3,0.6-0.3h0.4c0.4,0,0.5,0.3,0.3,0.6l-3.1,3.7l3.5,4.1c0.3,0.3,0.1,0.6-0.3,0.6h-0.5c-0.3,0-0.4-0.1-0.6-0.3l-3-3.6
		l-3,3.6c-0.2,0.2-0.3,0.3-0.6,0.3h-0.5C389.4,171.2,389.3,170.9,389.5,170.6z"/>
	<path class="st0" d="M400.2,159.2c0-0.6,0.4-1,1-1s1,0.4,1,1s-0.4,1-1,1S400.2,159.8,400.2,159.2z M400.5,170.7v-8
		c0-0.3,0.2-0.5,0.5-0.5h0.4c0.3,0,0.5,0.2,0.5,0.5v8c0,0.3-0.2,0.5-0.5,0.5H401C400.6,171.2,400.5,171,400.5,170.7z"/>
	<path class="st0" d="M404.1,169.7c-0.2-0.3,0-0.5,0.3-0.6l0.3-0.1c0.3-0.1,0.4,0,0.6,0.3c0.4,0.6,1.1,0.9,1.9,0.9
		c1,0,1.8-0.6,1.8-1.4c0-0.7-0.5-1.1-1.3-1.4l-1.3-0.4c-1.3-0.4-2.1-1.1-2.1-2.4c0-1.4,1.1-2.6,2.9-2.6c1,0,2.1,0.4,2.6,1.5
		c0.2,0.3,0,0.5-0.3,0.6l-0.3,0.1c-0.3,0.1-0.4,0-0.6-0.3c-0.3-0.5-0.8-0.7-1.4-0.7c-1,0-1.6,0.7-1.6,1.4s0.6,1.1,1.2,1.3l1.3,0.4
		c1.6,0.5,2.1,1.5,2.1,2.5c0,1.6-1.4,2.6-3.1,2.6C405.9,171.3,404.7,170.8,404.1,169.7z"/>
	<path class="st0" d="M412.9,168.3v-5.1h-1.2c-0.2,0-0.3-0.1-0.3-0.3v-0.5c0-0.2,0.1-0.3,0.3-0.3h1.2l0.3-2.3c0-0.3,0.2-0.4,0.5-0.4
		h0.2c0.3,0,0.4,0.1,0.4,0.4v2.3h2.6c0.2,0,0.3,0.1,0.3,0.3v0.5c0,0.2-0.1,0.3-0.3,0.3h-2.6v5.2c0,1.3,0.6,1.7,1.3,1.7
		c0.7,0,1.3-0.4,1.3-1.2c0-0.1,0-0.2,0-0.3c0-0.2,0.1-0.3,0.3-0.3h0.6c0.2,0,0.3,0.1,0.3,0.2c0.1,0.3,0.1,0.6,0.1,0.6
		c0,1.2-0.9,2.2-2.5,2.2C414.3,171.3,412.9,170.7,412.9,168.3z"/>
	<path class="st0" d="M419.6,159.2c0-0.6,0.4-1,1-1s1,0.4,1,1s-0.4,1-1,1S419.6,159.8,419.6,159.2z M419.9,170.7v-8
		c0-0.3,0.2-0.5,0.5-0.5h0.4c0.3,0,0.5,0.2,0.5,0.5v8c0,0.3-0.2,0.5-0.5,0.5h-0.4C420,171.2,419.9,171,419.9,170.7z"/>
	<path class="st0" d="M424.2,170.7v-8c0-0.3,0.2-0.5,0.5-0.5h0.4c0.3,0,0.5,0.2,0.5,0.5v1.4c0.5-1.4,1.8-2.1,3.1-2.1
		c1.9,0,3.6,1.1,3.6,4.1v4.6c0,0.3-0.2,0.5-0.5,0.5h-0.4c-0.3,0-0.5-0.2-0.5-0.5v-4.6c0-2.2-1.1-2.9-2.3-2.9c-1,0-3,0.7-3,3.6v3.9
		c0,0.3-0.2,0.5-0.5,0.5h-0.4C424.4,171.2,424.2,171,424.2,170.7z"/>
	<path class="st0" d="M435.6,174.4c-0.2-0.2-0.3-0.4-0.1-0.7l0.1-0.2c0.1-0.3,0.4-0.3,0.6-0.1c0.9,0.6,1.8,0.8,2.8,0.8
		c1.9,0,3.3-1.2,3.3-3.2v-1.5c-0.8,1.4-2.1,2-3.5,2c-2.7,0-4.5-2.1-4.5-4.7s1.7-4.7,4.5-4.7c1.5,0,2.7,0.6,3.5,2v-1.3
		c0-0.3,0.2-0.5,0.5-0.5h0.4c0.3,0,0.5,0.2,0.5,0.5v8.4c0,2.9-2.1,4.3-4.6,4.3C437.6,175.4,436.5,175,435.6,174.4z M442.4,166.7
		c0-2-1.4-3.5-3.4-3.5c-2.1,0-3.3,1.6-3.3,3.5s1.2,3.5,3.3,3.5C441,170.1,442.4,168.7,442.4,166.7z"/>
	<path class="st0" d="M343.9,192.7v-8c0-0.3,0.2-0.5,0.5-0.5h0.4c0.3,0,0.5,0.2,0.5,0.5v1.4c0.5-1.4,1.8-2.1,3-2.1
		c1.1,0,2.4,0.4,3.1,2.1c0.7-1.7,2.1-2.1,3.2-2.1c2.1,0,3.5,1.1,3.5,4.1v4.6c0,0.3-0.2,0.5-0.5,0.5h-0.4c-0.3,0-0.5-0.2-0.5-0.5
		v-4.6c0-2.2-1.1-2.9-2.3-2.9c-0.9,0-2.7,0.6-2.8,3.5v4c0,0.3-0.2,0.5-0.5,0.5h-0.4c-0.3,0-0.5-0.2-0.5-0.5v-4.6
		c0-2.2-1.1-2.9-2.2-2.9c-1,0-2.7,0.7-2.8,3.6v3.9c0,0.3-0.2,0.5-0.5,0.5h-0.4C344.1,193.2,343.9,193,343.9,192.7z"/>
	<path class="st0" d="M360.1,188.7c0-2.6,2-4.7,4.8-4.7c2.2,0,4.2,1.3,4.5,4.2c0.1,0.3-0.1,0.5-0.5,0.5h-7.4c-0.1,2,1.4,3.5,3.7,3.5
		c1,0,1.9-0.3,2.7-0.9c0.2-0.2,0.5-0.1,0.7,0.1l0.1,0.1c0.2,0.2,0.2,0.5-0.1,0.8c-1,0.9-2.3,1.2-3.4,1.2
		C362,193.3,360.1,191.2,360.1,188.7z M368,187.6c-0.4-1.9-1.8-2.4-3.1-2.4c-1.4,0-2.8,0.7-3.3,2.4H368z"/>
	<path class="st0" d="M370.8,188.7c0-2.6,1.8-4.7,4.5-4.7c1.4,0,2.7,0.6,3.5,2v-5.3c0-0.3,0.2-0.5,0.5-0.5h0.4
		c0.3,0,0.5,0.2,0.5,0.5v12c0,0.3-0.2,0.5-0.5,0.5h-0.4c-0.3,0-0.5-0.2-0.5-0.5v-1.3c-0.8,1.4-2.1,2-3.5,2
		C372.6,193.3,370.8,191.2,370.8,188.7z M378.8,188.7c0-2-1.4-3.5-3.4-3.5c-2.1,0-3.3,1.6-3.3,3.5s1.2,3.5,3.3,3.5
		C377.4,192.1,378.8,190.7,378.8,188.7z"/>
	<path class="st0" d="M382.8,181.2c0-0.6,0.4-1,1-1s1,0.4,1,1s-0.4,1-1,1C383.3,182.2,382.8,181.8,382.8,181.2z M383.1,192.7v-8
		c0-0.3,0.2-0.5,0.5-0.5h0.4c0.3,0,0.5,0.2,0.5,0.5v8c0,0.3-0.2,0.5-0.5,0.5h-0.4C383.3,193.2,383.1,193,383.1,192.7z"/>
	<path class="st0" d="M386.8,188.7c0-2.6,1.8-4.8,5.1-4.8c0.7,0,1.7,0.2,2.8,0.8c0.3,0.2,0.3,0.4,0.1,0.7l-0.1,0.2
		c-0.2,0.3-0.4,0.3-0.7,0.1c-0.9-0.5-1.7-0.5-2.1-0.5c-2.2,0-3.7,1.5-3.7,3.5s1.5,3.5,3.7,3.5c0.3,0,1.2-0.1,2.1-0.5
		c0.3-0.1,0.5-0.1,0.7,0.1l0.1,0.2c0.2,0.3,0.1,0.6-0.4,0.8c-1,0.5-1.9,0.6-2.5,0.6C388.7,193.3,386.8,191.3,386.8,188.7z"/>
	<path class="st0" d="M396.2,188.7c0-2.6,1.7-4.7,4.5-4.7c1.5,0,2.7,0.6,3.5,2v-1.3c0-0.3,0.2-0.5,0.5-0.5h0.4
		c0.3,0,0.5,0.2,0.5,0.5v8c0,0.3-0.2,0.5-0.5,0.5h-0.4c-0.3,0-0.5-0.2-0.5-0.5v-1.3c-0.8,1.4-2.1,2-3.5,2
		C397.9,193.3,396.2,191.2,396.2,188.7z M404.2,188.7c0-2-1.4-3.5-3.4-3.5c-2.1,0-3.3,1.6-3.3,3.5s1.2,3.5,3.3,3.5
		C402.8,192.1,404.2,190.7,404.2,188.7z"/>
	<path class="st0" d="M408.5,192.7v-12c0-0.3,0.2-0.5,0.5-0.5h0.4c0.3,0,0.5,0.2,0.5,0.5v12c0,0.3-0.2,0.5-0.5,0.5H409
		C408.7,193.2,408.5,193,408.5,192.7z"/>
	<path class="st0" d="M417,188.7c0-2.6,1.8-4.8,5.1-4.8c0.7,0,1.7,0.2,2.8,0.8c0.3,0.2,0.3,0.4,0.1,0.7l-0.1,0.2
		c-0.2,0.3-0.4,0.3-0.7,0.1c-0.9-0.5-1.7-0.5-2.1-0.5c-2.2,0-3.7,1.5-3.7,3.5s1.5,3.5,3.7,3.5c0.3,0,1.2-0.1,2.1-0.5
		c0.3-0.1,0.5-0.1,0.7,0.1l0.1,0.2c0.2,0.3,0.1,0.6-0.4,0.8c-1,0.5-1.9,0.6-2.5,0.6C418.9,193.3,417,191.3,417,188.7z"/>
	<path class="st0" d="M426.3,188.7c0-2.6,2.1-4.7,4.7-4.7s4.7,2.1,4.7,4.7c0,2.6-2.1,4.7-4.7,4.7
		C428.5,193.3,426.3,191.3,426.3,188.7z M434.4,188.7c0-1.9-1.5-3.5-3.3-3.5s-3.3,1.6-3.3,3.5s1.5,3.4,3.3,3.4
		C432.9,192.1,434.4,190.6,434.4,188.7z"/>
	<path class="st0" d="M438,192.7v-8c0-0.3,0.2-0.5,0.5-0.5h0.4c0.3,0,0.5,0.2,0.5,0.5v1.4c0.5-1.4,1.8-2.1,3.1-2.1
		c1.9,0,3.6,1.1,3.6,4.1v4.6c0,0.3-0.2,0.5-0.5,0.5h-0.4c-0.3,0-0.5-0.2-0.5-0.5v-4.6c0-2.2-1.1-2.9-2.3-2.9c-1,0-3,0.7-3,3.6v3.9
		c0,0.3-0.2,0.5-0.5,0.5h-0.4C438.2,193.2,438,193,438,192.7z"/>
	<path class="st0" d="M448.1,188.7c0-2.6,1.8-4.7,4.5-4.7c1.4,0,2.7,0.6,3.5,2v-5.3c0-0.3,0.2-0.5,0.5-0.5h0.4
		c0.3,0,0.5,0.2,0.5,0.5v12c0,0.3-0.2,0.5-0.5,0.5h-0.4c-0.3,0-0.5-0.2-0.5-0.5v-1.3c-0.8,1.4-2.1,2-3.5,2
		C449.9,193.3,448.1,191.2,448.1,188.7z M456.2,188.7c0-2-1.4-3.5-3.4-3.5c-2.1,0-3.3,1.6-3.3,3.5s1.2,3.5,3.3,3.5
		C454.8,192.1,456.2,190.7,456.2,188.7z"/>
	<path class="st0" d="M460.2,181.2c0-0.6,0.4-1,1-1s1,0.4,1,1s-0.4,1-1,1S460.2,181.8,460.2,181.2z M460.5,192.7v-8
		c0-0.3,0.2-0.5,0.5-0.5h0.4c0.3,0,0.5,0.2,0.5,0.5v8c0,0.3-0.2,0.5-0.5,0.5H461C460.7,193.2,460.5,193,460.5,192.7z"/>
	<path class="st0" d="M465.2,190.3v-5.1H464c-0.2,0-0.3-0.1-0.3-0.3v-0.5c0-0.2,0.1-0.3,0.3-0.3h1.2l0.3-2.3c0-0.3,0.2-0.4,0.5-0.4
		h0.2c0.3,0,0.4,0.1,0.4,0.4v2.3h2.6c0.2,0,0.3,0.1,0.3,0.3v0.5c0,0.2-0.1,0.3-0.3,0.3h-2.6v5.2c0,1.3,0.6,1.7,1.3,1.7
		c0.7,0,1.3-0.4,1.3-1.2c0-0.1,0-0.2,0-0.3c0-0.2,0.1-0.3,0.3-0.3h0.6c0.2,0,0.3,0.1,0.3,0.2c0.1,0.3,0.1,0.6,0.1,0.6
		c0,1.2-0.9,2.2-2.5,2.2C466.5,193.3,465.2,192.7,465.2,190.3z"/>
	<path class="st0" d="M471.8,181.2c0-0.6,0.4-1,1-1s1,0.4,1,1s-0.4,1-1,1C472.2,182.2,471.8,181.8,471.8,181.2z M472.1,192.7v-8
		c0-0.3,0.2-0.5,0.5-0.5h0.4c0.3,0,0.5,0.2,0.5,0.5v8c0,0.3-0.2,0.5-0.5,0.5h-0.4C472.3,193.2,472.1,193,472.1,192.7z"/>
	<path class="st0" d="M475.8,188.7c0-2.6,2.1-4.7,4.7-4.7s4.7,2.1,4.7,4.7c0,2.6-2.1,4.7-4.7,4.7
		C477.9,193.3,475.8,191.3,475.8,188.7z M483.8,188.7c0-1.9-1.5-3.5-3.3-3.5s-3.3,1.6-3.3,3.5s1.5,3.4,3.3,3.4
		C482.3,192.1,483.8,190.6,483.8,188.7z"/>
	<path class="st0" d="M487.4,192.7v-8c0-0.3,0.2-0.5,0.5-0.5h0.4c0.3,0,0.5,0.2,0.5,0.5v1.4c0.5-1.4,1.8-2.1,3.1-2.1
		c1.9,0,3.6,1.1,3.6,4.1v4.6c0,0.3-0.2,0.5-0.5,0.5h-0.4c-0.3,0-0.5-0.2-0.5-0.5v-4.6c0-2.2-1.1-2.9-2.3-2.9c-1,0-3,0.7-3,3.6v3.9
		c0,0.3-0.2,0.5-0.5,0.5h-0.4C487.6,193.2,487.4,193,487.4,192.7z"/>
	<path class="st0" d="M497.5,191.7c-0.2-0.3,0-0.5,0.3-0.6l0.3-0.1c0.3-0.1,0.4,0,0.6,0.3c0.4,0.6,1.1,0.9,1.9,0.9
		c1,0,1.8-0.6,1.8-1.4c0-0.7-0.5-1.1-1.3-1.4l-1.3-0.4c-1.3-0.4-2.1-1.1-2.1-2.4c0-1.4,1.1-2.6,2.9-2.6c1,0,2.1,0.4,2.6,1.5
		c0.2,0.3,0,0.5-0.3,0.6l-0.3,0.1c-0.3,0.1-0.4,0-0.6-0.3c-0.3-0.5-0.8-0.7-1.4-0.7c-1,0-1.6,0.7-1.6,1.4s0.6,1.1,1.2,1.3l1.3,0.4
		c1.6,0.5,2.1,1.5,2.1,2.5c0,1.6-1.4,2.6-3.1,2.6C499.3,193.3,498.1,192.8,497.5,191.7z"/>
	<path class="st0" d="M342.9,232.6l4.6-11.6c0.1-0.3,0.3-0.4,0.6-0.4h0.9c0.3,0,0.5,0.1,0.6,0.4l4.6,11.6c0.1,0.3,0,0.6-0.4,0.6
		h-0.4c-0.3,0-0.5-0.1-0.6-0.4l-0.9-2.3h-6.6l-0.9,2.3c-0.1,0.3-0.3,0.4-0.6,0.4h-0.5C343,233.2,342.8,232.9,342.9,232.6z
		 M351.4,229.3l-2.9-7.4l-2.8,7.4H351.4z"/>
	<path class="st0" d="M356.1,232.7v-12c0-0.3,0.2-0.5,0.5-0.5h0.4c0.3,0,0.5,0.2,0.5,0.5v12c0,0.3-0.2,0.5-0.5,0.5h-0.4
		C356.3,233.2,356.1,233,356.1,232.7z"/>
	<path class="st0" d="M359.7,228.7c0-2.6,1.8-4.8,5.1-4.8c0.7,0,1.7,0.2,2.8,0.8c0.3,0.2,0.3,0.4,0.1,0.7l-0.1,0.2
		c-0.2,0.3-0.4,0.3-0.7,0.1c-0.9-0.5-1.7-0.5-2.1-0.5c-2.2,0-3.7,1.5-3.7,3.5s1.5,3.5,3.7,3.5c0.3,0,1.2-0.1,2.1-0.5
		c0.3-0.1,0.5-0.1,0.7,0.1l0.1,0.2c0.2,0.3,0.1,0.6-0.4,0.8c-1,0.5-1.9,0.6-2.5,0.6C361.6,233.3,359.7,231.3,359.7,228.7z"/>
	<path class="st0" d="M369,228.7c0-2.6,2.1-4.7,4.7-4.7s4.7,2.1,4.7,4.7c0,2.6-2.1,4.7-4.7,4.7C371.2,233.3,369,231.3,369,228.7z
		 M377.1,228.7c0-1.9-1.5-3.5-3.3-3.5s-3.3,1.6-3.3,3.5s1.5,3.4,3.3,3.4C375.6,232.1,377.1,230.6,377.1,228.7z"/>
	<path class="st0" d="M380.7,232.7v-12c0-0.3,0.2-0.5,0.5-0.5h0.4c0.3,0,0.5,0.2,0.5,0.5v5.5c0.5-1.4,1.8-2.1,3.1-2.1
		c1.9,0,3.6,1.1,3.6,4.1v4.6c0,0.3-0.2,0.5-0.5,0.5h-0.4c-0.3,0-0.5-0.2-0.5-0.5v-4.6c0-2.2-1.1-2.9-2.3-2.9c-1,0-3,0.7-3,3.6v3.9
		c0,0.3-0.2,0.5-0.5,0.5h-0.4C380.8,233.2,380.7,233,380.7,232.7z"/>
	<path class="st0" d="M390.8,228.7c0-2.6,2.1-4.7,4.7-4.7s4.7,2.1,4.7,4.7c0,2.6-2.1,4.7-4.7,4.7
		C392.9,233.3,390.8,231.3,390.8,228.7z M398.8,228.7c0-1.9-1.5-3.5-3.3-3.5s-3.3,1.6-3.3,3.5s1.5,3.4,3.3,3.4
		C397.3,232.1,398.8,230.6,398.8,228.7z"/>
	<path class="st0" d="M402.4,232.7v-12c0-0.3,0.2-0.5,0.5-0.5h0.4c0.3,0,0.5,0.2,0.5,0.5v12c0,0.3-0.2,0.5-0.5,0.5h-0.4
		C402.6,233.2,402.4,233,402.4,232.7z"/>
	<path class="st0" d="M406.6,228v-0.7c0-0.2,0.1-0.3,0.3-0.3h5.1c0.2,0,0.3,0.1,0.3,0.3v0.7c0,0.2-0.1,0.3-0.3,0.3h-5.1
		C406.7,228.3,406.6,228.2,406.6,228z"/>
	<path class="st0" d="M415,232.7v-8c0-0.3,0.2-0.5,0.5-0.5h0.4c0.3,0,0.5,0.2,0.5,0.5v1.7c0.3-1.5,1.3-2.4,2.6-2.4
		c0.1,0,0.3,0,0.4,0c0.3,0.1,0.3,0.3,0.3,0.5v0.4c0,0.3-0.1,0.5-0.4,0.4c-0.2,0-0.3,0-0.5,0c-1.2,0-2.5,1-2.5,4.4v2.9
		c0,0.3-0.2,0.5-0.5,0.5h-0.4C415.2,233.2,415,233,415,232.7z"/>
	<path class="st0" d="M420.3,228.7c0-2.6,2-4.7,4.8-4.7c2.2,0,4.2,1.3,4.5,4.2c0.1,0.3-0.1,0.5-0.5,0.5h-7.4c-0.1,2,1.4,3.5,3.7,3.5
		c1,0,1.9-0.3,2.7-0.9c0.2-0.2,0.5-0.1,0.7,0.1l0.1,0.1c0.2,0.2,0.2,0.5-0.1,0.8c-1,0.9-2.3,1.2-3.4,1.2
		C422.3,233.3,420.3,231.2,420.3,228.7z M428.2,227.6c-0.4-1.9-1.8-2.4-3.1-2.4c-1.4,0-2.8,0.7-3.3,2.4H428.2z"/>
	<path class="st0" d="M431.8,232.7v-12c0-0.3,0.2-0.5,0.5-0.5h0.4c0.3,0,0.5,0.2,0.5,0.5v12c0,0.3-0.2,0.5-0.5,0.5h-0.4
		C432,233.2,431.8,233,431.8,232.7z"/>
	<path class="st0" d="M435.4,228.7c0-2.6,1.7-4.7,4.5-4.7c1.5,0,2.7,0.6,3.5,2v-1.3c0-0.3,0.2-0.5,0.5-0.5h0.4
		c0.3,0,0.5,0.2,0.5,0.5v8c0,0.3-0.2,0.5-0.5,0.5h-0.4c-0.3,0-0.5-0.2-0.5-0.5v-1.3c-0.8,1.4-2.1,2-3.5,2
		C437.2,233.3,435.4,231.2,435.4,228.7z M443.5,228.7c0-2-1.4-3.5-3.4-3.5c-2.1,0-3.3,1.6-3.3,3.5s1.2,3.5,3.3,3.5
		C442.1,232.1,443.5,230.7,443.5,228.7z"/>
	<path class="st0" d="M448.1,230.3v-5.1h-1.2c-0.2,0-0.3-0.1-0.3-0.3v-0.5c0-0.2,0.1-0.3,0.3-0.3h1.2l0.3-2.3c0-0.3,0.2-0.4,0.5-0.4
		h0.2c0.3,0,0.4,0.1,0.4,0.4v2.3h2.6c0.2,0,0.3,0.1,0.3,0.3v0.5c0,0.2-0.1,0.3-0.3,0.3h-2.6v5.2c0,1.3,0.6,1.7,1.3,1.7
		c0.7,0,1.3-0.4,1.3-1.2c0-0.1,0-0.2,0-0.3c0-0.2,0.1-0.3,0.3-0.3h0.6c0.2,0,0.3,0.1,0.3,0.2c0.1,0.3,0.1,0.6,0.1,0.6
		c0,1.2-0.9,2.2-2.5,2.2C449.4,233.3,448.1,232.7,448.1,230.3z"/>
	<path class="st0" d="M454.3,228.7c0-2.6,2-4.7,4.8-4.7c2.2,0,4.2,1.3,4.5,4.2c0.1,0.3-0.1,0.5-0.5,0.5h-7.4c-0.1,2,1.4,3.5,3.7,3.5
		c1,0,1.9-0.3,2.7-0.9c0.2-0.2,0.5-0.1,0.7,0.1l0.1,0.1c0.2,0.2,0.2,0.5-0.1,0.8c-1,0.9-2.3,1.2-3.4,1.2
		C456.2,233.3,454.3,231.2,454.3,228.7z M462.2,227.6c-0.4-1.9-1.8-2.4-3.1-2.4c-1.4,0-2.8,0.7-3.3,2.4H462.2z"/>
	<path class="st0" d="M465,228.7c0-2.6,1.8-4.7,4.5-4.7c1.4,0,2.7,0.6,3.5,2v-5.3c0-0.3,0.2-0.5,0.5-0.5h0.4c0.3,0,0.5,0.2,0.5,0.5
		v12c0,0.3-0.2,0.5-0.5,0.5h-0.4c-0.3,0-0.5-0.2-0.5-0.5v-1.3c-0.8,1.4-2.1,2-3.5,2C466.8,233.3,465,231.2,465,228.7z M473.1,228.7
		c0-2-1.4-3.5-3.4-3.5c-2.1,0-3.3,1.6-3.3,3.5s1.2,3.5,3.3,3.5C471.7,232.1,473,230.7,473.1,228.7z"/>
	<path class="st0" d="M343.2,250.7c0-2.6,1.7-4.7,4.5-4.7c1.5,0,2.7,0.6,3.5,2v-1.3c0-0.3,0.2-0.5,0.5-0.5h0.4
		c0.3,0,0.5,0.2,0.5,0.5v8c0,0.3-0.2,0.5-0.5,0.5h-0.4c-0.3,0-0.5-0.2-0.5-0.5v-1.3c-0.8,1.4-2.1,2-3.5,2
		C345,255.3,343.2,253.2,343.2,250.7z M351.3,250.7c0-2-1.4-3.5-3.4-3.5c-2.1,0-3.3,1.6-3.3,3.5s1.2,3.5,3.3,3.5
		C349.8,254.1,351.3,252.7,351.3,250.7z"/>
	<path class="st0" d="M354.8,250.7c0-2.6,1.8-4.8,5.1-4.8c0.7,0,1.7,0.2,2.8,0.8c0.3,0.2,0.3,0.4,0.1,0.7l-0.1,0.2
		c-0.2,0.3-0.4,0.3-0.7,0.1c-0.9-0.5-1.7-0.5-2.1-0.5c-2.2,0-3.7,1.5-3.7,3.5s1.5,3.5,3.7,3.5c0.3,0,1.2-0.1,2.1-0.5
		c0.3-0.1,0.5-0.1,0.7,0.1l0.1,0.2c0.2,0.3,0.1,0.6-0.4,0.8c-1,0.5-1.9,0.6-2.5,0.6C356.7,255.3,354.8,253.3,354.8,250.7z"/>
	<path class="st0" d="M364.2,250.7c0-2.6,1.8-4.8,5.1-4.8c0.7,0,1.7,0.2,2.8,0.8c0.3,0.2,0.3,0.4,0.1,0.7l-0.1,0.2
		c-0.2,0.3-0.4,0.3-0.7,0.1c-0.9-0.5-1.7-0.5-2.1-0.5c-2.2,0-3.7,1.5-3.7,3.5s1.5,3.5,3.7,3.5c0.3,0,1.2-0.1,2.1-0.5
		c0.3-0.1,0.5-0.1,0.7,0.1l0.1,0.2c0.2,0.3,0.1,0.6-0.4,0.8c-1,0.5-1.9,0.6-2.5,0.6C366,255.3,364.2,253.3,364.2,250.7z"/>
	<path class="st0" d="M374.2,243.2c0-0.6,0.4-1,1-1s1,0.4,1,1s-0.4,1-1,1S374.2,243.8,374.2,243.2z M374.5,254.7v-8
		c0-0.3,0.2-0.5,0.5-0.5h0.4c0.3,0,0.5,0.2,0.5,0.5v8c0,0.3-0.2,0.5-0.5,0.5H375C374.6,255.2,374.5,255,374.5,254.7z"/>
	<path class="st0" d="M378.1,250.7c0-2.6,1.8-4.7,4.5-4.7c1.4,0,2.7,0.6,3.5,2v-5.3c0-0.3,0.2-0.5,0.5-0.5h0.4
		c0.3,0,0.5,0.2,0.5,0.5v12c0,0.3-0.2,0.5-0.5,0.5h-0.4c-0.3,0-0.5-0.2-0.5-0.5v-1.3c-0.8,1.4-2.1,2-3.5,2
		C379.9,255.3,378.1,253.2,378.1,250.7z M386.2,250.7c0-2-1.4-3.5-3.4-3.5c-2.1,0-3.3,1.6-3.3,3.5s1.2,3.5,3.3,3.5
		C384.8,254.1,386.2,252.7,386.2,250.7z"/>
	<path class="st0" d="M389.7,250.7c0-2.6,2-4.7,4.8-4.7c2.2,0,4.2,1.3,4.5,4.2c0.1,0.3-0.1,0.5-0.5,0.5h-7.4c-0.1,2,1.4,3.5,3.7,3.5
		c1,0,1.9-0.3,2.7-0.9c0.2-0.2,0.5-0.1,0.7,0.1l0.1,0.1c0.2,0.2,0.2,0.5-0.1,0.8c-1,0.9-2.3,1.2-3.4,1.2
		C391.7,255.3,389.7,253.2,389.7,250.7z M397.6,249.6c-0.4-1.9-1.8-2.4-3.1-2.4c-1.4,0-2.8,0.7-3.3,2.4H397.6z"/>
	<path class="st0" d="M401.1,254.7v-8c0-0.3,0.2-0.5,0.5-0.5h0.4c0.3,0,0.5,0.2,0.5,0.5v1.4c0.5-1.4,1.8-2.1,3.1-2.1
		c1.9,0,3.6,1.1,3.6,4.1v4.6c0,0.3-0.2,0.5-0.5,0.5h-0.4c-0.3,0-0.5-0.2-0.5-0.5v-4.6c0-2.2-1.1-2.9-2.3-2.9c-1,0-3,0.7-3,3.6v3.9
		c0,0.3-0.2,0.5-0.5,0.5h-0.4C401.3,255.2,401.1,255,401.1,254.7z"/>
	<path class="st0" d="M412.2,252.3v-5.1H411c-0.2,0-0.3-0.1-0.3-0.3v-0.5c0-0.2,0.1-0.3,0.3-0.3h1.2l0.3-2.3c0-0.3,0.2-0.4,0.5-0.4
		h0.2c0.3,0,0.4,0.1,0.4,0.4v2.3h2.6c0.2,0,0.3,0.1,0.3,0.3v0.5c0,0.2-0.1,0.3-0.3,0.3h-2.6v5.2c0,1.3,0.6,1.7,1.3,1.7
		c0.7,0,1.3-0.4,1.3-1.2c0-0.1,0-0.2,0-0.3c0-0.2,0.1-0.3,0.3-0.3h0.6c0.2,0,0.3,0.1,0.3,0.2c0.1,0.3,0.1,0.6,0.1,0.6
		c0,1.2-0.9,2.2-2.5,2.2C413.5,255.3,412.2,254.7,412.2,252.3z"/>
	<path class="st0" d="M418.4,253.7c-0.2-0.3,0-0.5,0.3-0.6l0.3-0.1c0.3-0.1,0.4,0,0.6,0.3c0.4,0.6,1.1,0.9,1.9,0.9
		c1,0,1.8-0.6,1.8-1.4c0-0.7-0.5-1.1-1.3-1.4l-1.3-0.4c-1.3-0.4-2.1-1.1-2.1-2.4c0-1.4,1.1-2.6,2.9-2.6c1,0,2.1,0.4,2.6,1.5
		c0.2,0.3,0,0.5-0.3,0.6l-0.3,0.1c-0.3,0.1-0.4,0-0.6-0.3c-0.3-0.5-0.8-0.7-1.4-0.7c-1,0-1.6,0.7-1.6,1.4s0.6,1.1,1.2,1.3l1.3,0.4
		c1.6,0.5,2.1,1.5,2.1,2.5c0,1.6-1.4,2.6-3.1,2.6C420.2,255.3,419,254.8,418.4,253.7z"/>
	<path class="st0" d="M344.3,294.7V283c0-0.3,0.2-0.5,0.5-0.5h0.2c0.2,0,0.4,0.1,0.6,0.3l7.2,9.7V283c0-0.3,0.2-0.5,0.5-0.5h0.5
		c0.3,0,0.5,0.2,0.5,0.5v11.6c0,0.3-0.2,0.5-0.5,0.5h-0.2c-0.3,0-0.5-0.1-0.6-0.3l-7.2-9.8v9.6c0,0.3-0.2,0.5-0.5,0.5h-0.5
		C344.5,295.2,344.3,295,344.3,294.7z"/>
	<path class="st0" d="M356.7,290.7c0-2.6,1.7-4.7,4.5-4.7c1.5,0,2.7,0.6,3.5,2v-1.3c0-0.3,0.2-0.5,0.5-0.5h0.4
		c0.3,0,0.5,0.2,0.5,0.5v8c0,0.3-0.2,0.5-0.5,0.5h-0.4c-0.3,0-0.5-0.2-0.5-0.5v-1.3c-0.8,1.4-2.1,2-3.5,2
		C358.5,295.3,356.7,293.2,356.7,290.7z M364.7,290.7c0-2-1.4-3.5-3.4-3.5c-2.1,0-3.3,1.6-3.3,3.5s1.2,3.5,3.3,3.5
		C363.3,294.1,364.7,292.7,364.7,290.7z"/>
	<path class="st0" d="M369.4,292.3v-5.1h-1.2c-0.2,0-0.3-0.1-0.3-0.3v-0.5c0-0.2,0.1-0.3,0.3-0.3h1.2l0.3-2.3c0-0.3,0.2-0.4,0.5-0.4
		h0.2c0.3,0,0.4,0.1,0.4,0.4v2.3h2.6c0.2,0,0.3,0.1,0.3,0.3v0.5c0,0.2-0.1,0.3-0.3,0.3h-2.6v5.2c0,1.3,0.6,1.7,1.3,1.7
		c0.7,0,1.3-0.4,1.3-1.2c0-0.1,0-0.2,0-0.3c0-0.2,0.1-0.3,0.3-0.3h0.6c0.2,0,0.3,0.1,0.3,0.2c0.1,0.3,0.1,0.6,0.1,0.6
		c0,1.2-0.9,2.2-2.5,2.2C370.7,295.3,369.4,294.7,369.4,292.3z"/>
	<path class="st0" d="M376.1,291.3v-4.6c0-0.3,0.2-0.5,0.5-0.5h0.4c0.3,0,0.5,0.2,0.5,0.5v4.6c0,2.2,1.1,2.8,2.3,2.8
		c1,0,3-0.7,3-3.6v-3.9c0-0.3,0.2-0.5,0.5-0.5h0.4c0.3,0,0.5,0.2,0.5,0.5v8c0,0.3-0.2,0.5-0.5,0.5h-0.4c-0.3,0-0.5-0.2-0.5-0.5v-1.4
		c-0.5,1.4-1.8,2.1-3.1,2.1C377.7,295.3,376.1,294.2,376.1,291.3z"/>
	<path class="st0" d="M387.1,294.7v-8c0-0.3,0.2-0.5,0.5-0.5h0.4c0.3,0,0.5,0.2,0.5,0.5v1.7c0.3-1.5,1.3-2.4,2.6-2.4
		c0.1,0,0.3,0,0.4,0c0.3,0.1,0.3,0.3,0.3,0.5v0.4c0,0.3-0.1,0.5-0.4,0.4c-0.2,0-0.3,0-0.5,0c-1.2,0-2.5,1-2.5,4.4v2.9
		c0,0.3-0.2,0.5-0.5,0.5h-0.4C387.3,295.2,387.1,295,387.1,294.7z"/>
	<path class="st0" d="M392.5,290.7c0-2.6,1.7-4.7,4.5-4.7c1.5,0,2.7,0.6,3.5,2v-1.3c0-0.3,0.2-0.5,0.5-0.5h0.4
		c0.3,0,0.5,0.2,0.5,0.5v8c0,0.3-0.2,0.5-0.5,0.5H401c-0.3,0-0.5-0.2-0.5-0.5v-1.3c-0.8,1.4-2.1,2-3.5,2
		C394.3,295.3,392.5,293.2,392.5,290.7z M400.5,290.7c0-2-1.4-3.5-3.4-3.5c-2.1,0-3.3,1.6-3.3,3.5s1.2,3.5,3.3,3.5
		C399.1,294.1,400.5,292.7,400.5,290.7z"/>
	<path class="st0" d="M404.8,294.7v-12c0-0.3,0.2-0.5,0.5-0.5h0.4c0.3,0,0.5,0.2,0.5,0.5v12c0,0.3-0.2,0.5-0.5,0.5h-0.4
		C405,295.2,404.8,295,404.8,294.7z"/>
	<path class="st0" d="M413.3,290.7c0-2.6,1.8-4.7,4.5-4.7c1.4,0,2.7,0.6,3.5,2v-5.3c0-0.3,0.2-0.5,0.5-0.5h0.4
		c0.3,0,0.5,0.2,0.5,0.5v12c0,0.3-0.2,0.5-0.5,0.5h-0.4c-0.3,0-0.5-0.2-0.5-0.5v-1.3c-0.8,1.4-2.1,2-3.5,2
		C415.1,295.3,413.3,293.2,413.3,290.7z M421.4,290.7c0-2-1.4-3.5-3.4-3.5c-2.1,0-3.3,1.6-3.3,3.5s1.2,3.5,3.3,3.5
		C420,294.1,421.4,292.7,421.4,290.7z"/>
	<path class="st0" d="M425.4,283.2c0-0.6,0.4-1,1-1s1,0.4,1,1s-0.4,1-1,1S425.4,283.8,425.4,283.2z M425.7,294.7v-8
		c0-0.3,0.2-0.5,0.5-0.5h0.4c0.3,0,0.5,0.2,0.5,0.5v8c0,0.3-0.2,0.5-0.5,0.5h-0.4C425.9,295.2,425.7,295,425.7,294.7z"/>
	<path class="st0" d="M429.4,293.7c-0.2-0.3,0-0.5,0.3-0.6l0.3-0.1c0.3-0.1,0.4,0,0.6,0.3c0.4,0.6,1.1,0.9,1.9,0.9
		c1,0,1.8-0.6,1.8-1.4c0-0.7-0.5-1.1-1.3-1.4l-1.3-0.4c-1.3-0.4-2.1-1.1-2.1-2.4c0-1.4,1.1-2.6,2.9-2.6c1,0,2.1,0.4,2.6,1.5
		c0.2,0.3,0,0.5-0.3,0.6l-0.3,0.1c-0.3,0.1-0.4,0-0.6-0.3c-0.3-0.5-0.8-0.7-1.4-0.7c-1,0-1.6,0.7-1.6,1.4c0,0.7,0.6,1.1,1.2,1.3
		l1.3,0.4c1.6,0.5,2.1,1.5,2.1,2.5c0,1.6-1.4,2.6-3.1,2.6C431.1,295.3,429.9,294.8,429.4,293.7z"/>
	<path class="st0" d="M437.1,290.7c0-2.6,1.7-4.7,4.5-4.7c1.5,0,2.7,0.6,3.5,2v-1.3c0-0.3,0.2-0.5,0.5-0.5h0.4
		c0.3,0,0.5,0.2,0.5,0.5v8c0,0.3-0.2,0.5-0.5,0.5h-0.4c-0.3,0-0.5-0.2-0.5-0.5v-1.3c-0.8,1.4-2.1,2-3.5,2
		C438.9,295.3,437.1,293.2,437.1,290.7z M445.1,290.7c0-2-1.4-3.5-3.4-3.5c-2.1,0-3.3,1.6-3.3,3.5s1.2,3.5,3.3,3.5
		C443.7,294.1,445.1,292.7,445.1,290.7z"/>
	<path class="st0" d="M448.7,293.7c-0.2-0.3,0-0.5,0.3-0.6l0.3-0.1c0.3-0.1,0.4,0,0.6,0.3c0.4,0.6,1.1,0.9,1.9,0.9
		c1,0,1.8-0.6,1.8-1.4c0-0.7-0.5-1.1-1.3-1.4L451,291c-1.3-0.4-2.1-1.1-2.1-2.4c0-1.4,1.1-2.6,2.9-2.6c1,0,2.1,0.4,2.6,1.5
		c0.2,0.3,0,0.5-0.3,0.6l-0.3,0.1c-0.3,0.1-0.4,0-0.6-0.3c-0.3-0.5-0.8-0.7-1.4-0.7c-1,0-1.6,0.7-1.6,1.4c0,0.7,0.6,1.1,1.2,1.3
		l1.3,0.4c1.6,0.5,2.1,1.5,2.1,2.5c0,1.6-1.4,2.6-3.1,2.6C450.5,295.3,449.3,294.8,448.7,293.7z"/>
	<path class="st0" d="M457.5,292.3v-5.1h-1.2c-0.2,0-0.3-0.1-0.3-0.3v-0.5c0-0.2,0.1-0.3,0.3-0.3h1.2l0.3-2.3c0-0.3,0.2-0.4,0.5-0.4
		h0.2c0.3,0,0.4,0.1,0.4,0.4v2.3h2.6c0.2,0,0.3,0.1,0.3,0.3v0.5c0,0.2-0.1,0.3-0.3,0.3h-2.6v5.2c0,1.3,0.6,1.7,1.3,1.7
		c0.7,0,1.3-0.4,1.3-1.2c0-0.1,0-0.2,0-0.3c0-0.2,0.1-0.3,0.3-0.3h0.6c0.2,0,0.3,0.1,0.3,0.2c0.1,0.3,0.1,0.6,0.1,0.6
		c0,1.2-0.9,2.2-2.5,2.2C458.8,295.3,457.5,294.7,457.5,292.3z"/>
	<path class="st0" d="M463.7,290.7c0-2.6,2-4.7,4.8-4.7c2.2,0,4.2,1.3,4.5,4.2c0.1,0.3-0.1,0.5-0.5,0.5h-7.4c-0.1,2,1.4,3.5,3.7,3.5
		c1,0,1.9-0.3,2.7-0.9c0.2-0.2,0.5-0.1,0.7,0.1l0.1,0.1c0.2,0.2,0.2,0.5-0.1,0.8c-1,0.9-2.3,1.2-3.4,1.2
		C465.6,295.3,463.7,293.2,463.7,290.7z M471.6,289.6c-0.4-1.9-1.8-2.4-3.1-2.4c-1.4,0-2.8,0.7-3.3,2.4H471.6z"/>
	<path class="st0" d="M475.1,294.7v-8c0-0.3,0.2-0.5,0.5-0.5h0.4c0.3,0,0.5,0.2,0.5,0.5v1.7c0.3-1.5,1.3-2.4,2.6-2.4
		c0.1,0,0.3,0,0.4,0c0.3,0.1,0.3,0.3,0.3,0.5v0.4c0,0.3-0.1,0.5-0.4,0.4c-0.2,0-0.3,0-0.5,0c-1.2,0-2.5,1-2.5,4.4v2.9
		c0,0.3-0.2,0.5-0.5,0.5h-0.4C475.3,295.2,475.1,295,475.1,294.7z"/>
	<path class="st0" d="M480.8,293.7c-0.2-0.3,0-0.5,0.3-0.6l0.3-0.1c0.3-0.1,0.4,0,0.6,0.3c0.4,0.6,1.1,0.9,1.9,0.9
		c1,0,1.8-0.6,1.8-1.4c0-0.7-0.5-1.1-1.3-1.4l-1.3-0.4c-1.3-0.4-2.1-1.1-2.1-2.4c0-1.4,1.1-2.6,2.9-2.6c1,0,2.1,0.4,2.6,1.5
		c0.2,0.3,0,0.5-0.3,0.6l-0.3,0.1c-0.3,0.1-0.4,0-0.6-0.3c-0.3-0.5-0.8-0.7-1.4-0.7c-1,0-1.6,0.7-1.6,1.4c0,0.7,0.6,1.1,1.2,1.3
		l1.3,0.4c1.6,0.5,2.1,1.5,2.1,2.5c0,1.6-1.4,2.6-3.1,2.6C482.5,295.3,481.3,294.8,480.8,293.7z"/>
	<path class="st0" d="M345.7,323.7v4.7h5.1c0.3,0,0.5,0.2,0.5,0.5v0.2c0,0.3-0.2,0.5-0.5,0.5h-5.1v4.4h6c0.3,0,0.5,0.2,0.5,0.5v0.2
		c0,0.3-0.2,0.5-0.5,0.5h-6.9c-0.3,0-0.5-0.2-0.5-0.5V323c0-0.3,0.2-0.5,0.5-0.5h6.9c0.3,0,0.5,0.2,0.5,0.5v0.2
		c0,0.3-0.2,0.5-0.5,0.5H345.7z"/>
	<path class="st0" d="M353.7,334.6l3.5-4.1l-3.1-3.7c-0.3-0.3-0.1-0.6,0.3-0.6h0.4c0.3,0,0.4,0.1,0.6,0.3l2.7,3.2l2.7-3.2
		c0.2-0.2,0.3-0.3,0.6-0.3h0.4c0.4,0,0.5,0.3,0.3,0.6l-3.1,3.7l3.5,4.1c0.3,0.3,0.1,0.6-0.3,0.6h-0.5c-0.3,0-0.4-0.1-0.6-0.3l-3-3.6
		l-3,3.6c-0.2,0.2-0.3,0.3-0.6,0.3H354C353.6,335.2,353.5,334.9,353.7,334.6z"/>
	<path class="st0" d="M365,332.3v-5.1h-1.2c-0.2,0-0.3-0.1-0.3-0.3v-0.5c0-0.2,0.1-0.3,0.3-0.3h1.2l0.3-2.3c0-0.3,0.2-0.4,0.5-0.4
		h0.2c0.3,0,0.4,0.1,0.4,0.4v2.3h2.6c0.2,0,0.3,0.1,0.3,0.3v0.5c0,0.2-0.1,0.3-0.3,0.3h-2.6v5.2c0,1.3,0.6,1.7,1.3,1.7
		c0.7,0,1.3-0.4,1.3-1.2c0-0.1,0-0.2,0-0.3c0-0.2,0.1-0.3,0.3-0.3h0.6c0.2,0,0.3,0.1,0.3,0.2c0.1,0.3,0.1,0.6,0.1,0.6
		c0,1.2-0.9,2.2-2.5,2.2C366.3,335.3,365,334.7,365,332.3z"/>
	<path class="st0" d="M371.9,334.7v-8c0-0.3,0.2-0.5,0.5-0.5h0.4c0.3,0,0.5,0.2,0.5,0.5v1.7c0.3-1.5,1.3-2.4,2.6-2.4
		c0.1,0,0.3,0,0.4,0c0.3,0.1,0.3,0.3,0.3,0.5v0.4c0,0.3-0.1,0.5-0.4,0.4c-0.2,0-0.3,0-0.5,0c-1.2,0-2.5,1-2.5,4.4v2.9
		c0,0.3-0.2,0.5-0.5,0.5h-0.4C372,335.2,371.9,335,371.9,334.7z"/>
	<path class="st0" d="M377.2,330.7c0-2.6,2-4.7,4.8-4.7c2.2,0,4.2,1.3,4.5,4.2c0.1,0.3-0.1,0.5-0.5,0.5h-7.4c-0.1,2,1.4,3.5,3.7,3.5
		c1,0,1.9-0.3,2.7-0.9c0.2-0.2,0.5-0.1,0.7,0.1l0.1,0.1c0.2,0.2,0.2,0.5-0.1,0.8c-1,0.9-2.3,1.2-3.4,1.2
		C379.2,335.3,377.2,333.2,377.2,330.7z M385.1,329.6c-0.4-1.9-1.8-2.4-3.1-2.4c-1.4,0-2.8,0.7-3.3,2.4H385.1z"/>
	<path class="st0" d="M388.6,334.7v-8c0-0.3,0.2-0.5,0.5-0.5h0.4c0.3,0,0.5,0.2,0.5,0.5v1.4c0.5-1.4,1.8-2.1,3-2.1
		c1.1,0,2.4,0.4,3.1,2.1c0.7-1.7,2.1-2.1,3.2-2.1c2.1,0,3.5,1.1,3.5,4.1v4.6c0,0.3-0.2,0.5-0.5,0.5h-0.4c-0.3,0-0.5-0.2-0.5-0.5
		v-4.6c0-2.2-1.1-2.9-2.3-2.9c-0.9,0-2.7,0.6-2.8,3.5v4c0,0.3-0.2,0.5-0.5,0.5h-0.4c-0.3,0-0.5-0.2-0.5-0.5v-4.6
		c0-2.2-1.1-2.9-2.2-2.9c-1,0-2.7,0.7-2.8,3.6v3.9c0,0.3-0.2,0.5-0.5,0.5H389C388.8,335.2,388.6,335,388.6,334.7z"/>
	<path class="st0" d="M404.8,330.7c0-2.6,2-4.7,4.8-4.7c2.2,0,4.2,1.3,4.5,4.2c0.1,0.3-0.1,0.5-0.5,0.5h-7.4c-0.1,2,1.4,3.5,3.7,3.5
		c1,0,1.9-0.3,2.7-0.9c0.2-0.2,0.5-0.1,0.7,0.1l0.1,0.1c0.2,0.2,0.2,0.5-0.1,0.8c-1,0.9-2.3,1.2-3.4,1.2
		C406.7,335.3,404.8,333.2,404.8,330.7z M412.7,329.6c-0.4-1.9-1.8-2.4-3.1-2.4c-1.4,0-2.8,0.7-3.3,2.4H412.7z"/>
	<path class="st0" d="M420.4,333.7c-0.2-0.3,0-0.5,0.3-0.6l0.3-0.1c0.3-0.1,0.4,0,0.6,0.3c0.4,0.6,1.1,0.9,1.9,0.9
		c1,0,1.8-0.6,1.8-1.4c0-0.7-0.5-1.1-1.3-1.4l-1.3-0.4c-1.3-0.4-2.1-1.1-2.1-2.4c0-1.4,1.1-2.6,2.9-2.6c1,0,2.1,0.4,2.6,1.5
		c0.2,0.3,0,0.5-0.3,0.6l-0.3,0.1c-0.3,0.1-0.4,0-0.6-0.3c-0.3-0.5-0.8-0.7-1.4-0.7c-1,0-1.6,0.7-1.6,1.4c0,0.7,0.6,1.1,1.2,1.3
		l1.3,0.4c1.6,0.5,2.1,1.5,2.1,2.5c0,1.6-1.4,2.6-3.1,2.6C422.1,335.3,420.9,334.8,420.4,333.7z"/>
	<path class="st0" d="M428.8,338.7v-12c0-0.3,0.2-0.5,0.5-0.5h0.4c0.3,0,0.5,0.2,0.5,0.5v1.3c0.8-1.4,2.1-2,3.5-2
		c2.7,0,4.5,2.1,4.5,4.7s-1.7,4.7-4.5,4.7c-1.5,0-2.7-0.6-3.5-2v5.3c0,0.3-0.2,0.5-0.5,0.5h-0.4C429,339.2,428.8,339,428.8,338.7z
		 M436.8,330.7c0-1.9-1.2-3.5-3.3-3.5c-2,0-3.4,1.5-3.4,3.5s1.4,3.5,3.4,3.5C435.6,334.1,436.8,332.5,436.8,330.7z"/>
	<path class="st0" d="M439.7,330.7c0-2.6,2.1-4.7,4.7-4.7s4.7,2.1,4.7,4.7s-2.1,4.7-4.7,4.7C441.8,335.3,439.7,333.3,439.7,330.7z
		 M447.7,330.7c0-1.9-1.5-3.5-3.3-3.5s-3.3,1.6-3.3,3.5s1.5,3.4,3.3,3.4S447.7,332.6,447.7,330.7z"/>
	<path class="st0" d="M451.3,334.7v-8c0-0.3,0.2-0.5,0.5-0.5h0.4c0.3,0,0.5,0.2,0.5,0.5v1.7c0.3-1.5,1.3-2.4,2.6-2.4
		c0.1,0,0.3,0,0.4,0c0.3,0.1,0.3,0.3,0.3,0.5v0.4c0,0.3-0.1,0.5-0.4,0.4c-0.2,0-0.3,0-0.5,0c-1.2,0-2.5,1-2.5,4.4v2.9
		c0,0.3-0.2,0.5-0.5,0.5h-0.4C451.5,335.2,451.3,335,451.3,334.7z"/>
	<path class="st0" d="M458,332.3v-5.1h-1.2c-0.2,0-0.3-0.1-0.3-0.3v-0.5c0-0.2,0.1-0.3,0.3-0.3h1.2l0.3-2.3c0-0.3,0.2-0.4,0.5-0.4
		h0.2c0.3,0,0.4,0.1,0.4,0.4v2.3h2.6c0.2,0,0.3,0.1,0.3,0.3v0.5c0,0.2-0.1,0.3-0.3,0.3h-2.6v5.2c0,1.3,0.6,1.7,1.3,1.7
		c0.7,0,1.3-0.4,1.3-1.2c0-0.1,0-0.2,0-0.3c0-0.2,0.1-0.3,0.3-0.3h0.6c0.2,0,0.3,0.1,0.3,0.2c0.1,0.3,0.1,0.6,0.1,0.6
		c0,1.2-0.9,2.2-2.5,2.2C459.4,335.3,458,334.7,458,332.3z"/>
	<path class="st0" d="M464.3,333.7c-0.2-0.3,0-0.5,0.3-0.6l0.3-0.1c0.3-0.1,0.4,0,0.6,0.3c0.4,0.6,1.1,0.9,1.9,0.9
		c1,0,1.8-0.6,1.8-1.4c0-0.7-0.5-1.1-1.3-1.4l-1.3-0.4c-1.3-0.4-2.1-1.1-2.1-2.4c0-1.4,1.1-2.6,2.9-2.6c1,0,2.1,0.4,2.6,1.5
		c0.2,0.3,0,0.5-0.3,0.6l-0.3,0.1c-0.3,0.1-0.4,0-0.6-0.3c-0.3-0.5-0.8-0.7-1.4-0.7c-1,0-1.6,0.7-1.6,1.4c0,0.7,0.6,1.1,1.2,1.3
		l1.3,0.4c1.6,0.5,2.1,1.5,2.1,2.5c0,1.6-1.4,2.6-3.1,2.6C466,335.3,464.8,334.8,464.3,333.7z"/>
	<path class="st0" d="M352.9,363v0.2c0,0.3-0.2,0.5-0.5,0.5h-3.9v10.9c0,0.3-0.2,0.5-0.5,0.5h-0.4c-0.3,0-0.5-0.2-0.5-0.5v-10.9
		h-3.9c-0.3,0-0.5-0.2-0.5-0.5V363c0-0.3,0.2-0.5,0.5-0.5h9.2C352.8,362.5,352.9,362.7,352.9,363z"/>
	<path class="st0" d="M352.2,370.7c0-2.6,2-4.7,4.8-4.7c2.2,0,4.2,1.3,4.5,4.2c0.1,0.3-0.1,0.5-0.5,0.5h-7.4c-0.1,2,1.4,3.5,3.7,3.5
		c1,0,1.9-0.3,2.7-0.9c0.2-0.2,0.5-0.1,0.7,0.1l0.1,0.1c0.2,0.2,0.2,0.5-0.1,0.8c-1,0.9-2.3,1.2-3.4,1.2
		C354.1,375.3,352.2,373.2,352.2,370.7z M360.1,369.6c-0.4-1.9-1.8-2.4-3.1-2.4c-1.4,0-2.8,0.7-3.3,2.4H360.1z"/>
	<path class="st0" d="M363.6,374.7v-8c0-0.3,0.2-0.5,0.5-0.5h0.4c0.3,0,0.5,0.2,0.5,0.5v1.7c0.3-1.5,1.3-2.4,2.6-2.4
		c0.1,0,0.3,0,0.4,0c0.3,0.1,0.3,0.3,0.3,0.5v0.4c0,0.3-0.1,0.5-0.4,0.4c-0.2,0-0.3,0-0.5,0c-1.2,0-2.5,1-2.5,4.4v2.9
		c0,0.3-0.2,0.5-0.5,0.5H364C363.7,375.2,363.6,375,363.6,374.7z"/>
	<path class="st0" d="M369.9,374.7v-8c0-0.3,0.2-0.5,0.5-0.5h0.4c0.3,0,0.5,0.2,0.5,0.5v1.7c0.3-1.5,1.3-2.4,2.6-2.4
		c0.1,0,0.3,0,0.4,0c0.3,0.1,0.3,0.3,0.3,0.5v0.4c0,0.3-0.1,0.5-0.4,0.4c-0.2,0-0.3,0-0.5,0c-1.2,0-2.5,1-2.5,4.4v2.9
		c0,0.3-0.2,0.5-0.5,0.5h-0.4C370.1,375.2,369.9,375,369.9,374.7z"/>
	<path class="st0" d="M375.3,370.7c0-2.6,2.1-4.7,4.7-4.7s4.7,2.1,4.7,4.7s-2.1,4.7-4.7,4.7C377.4,375.3,375.3,373.3,375.3,370.7z
		 M383.3,370.7c0-1.9-1.5-3.5-3.3-3.5s-3.3,1.6-3.3,3.5s1.5,3.4,3.3,3.4S383.3,372.6,383.3,370.7z"/>
	<path class="st0" d="M386.9,374.7v-8c0-0.3,0.2-0.5,0.5-0.5h0.4c0.3,0,0.5,0.2,0.5,0.5v1.7c0.3-1.5,1.3-2.4,2.6-2.4
		c0.1,0,0.3,0,0.4,0c0.3,0.1,0.3,0.3,0.3,0.5v0.4c0,0.3-0.1,0.5-0.4,0.4c-0.2,0-0.3,0-0.5,0c-1.2,0-2.5,1-2.5,4.4v2.9
		c0,0.3-0.2,0.5-0.5,0.5h-0.4C387.1,375.2,386.9,375,386.9,374.7z"/>
	<path class="st0" d="M393,363.2c0-0.6,0.4-1,1-1s1,0.4,1,1s-0.4,1-1,1S393,363.8,393,363.2z M393.3,374.7v-8c0-0.3,0.2-0.5,0.5-0.5
		h0.4c0.3,0,0.5,0.2,0.5,0.5v8c0,0.3-0.2,0.5-0.5,0.5h-0.4C393.5,375.2,393.3,375,393.3,374.7z"/>
	<path class="st0" d="M397,373.7c-0.2-0.3,0-0.5,0.3-0.6l0.3-0.1c0.3-0.1,0.4,0,0.6,0.3c0.4,0.6,1.1,0.9,1.9,0.9
		c1,0,1.8-0.6,1.8-1.4c0-0.7-0.5-1.1-1.3-1.4l-1.3-0.4c-1.3-0.4-2.1-1.1-2.1-2.4c0-1.4,1.1-2.6,2.9-2.6c1,0,2.1,0.4,2.6,1.5
		c0.2,0.3,0,0.5-0.3,0.6l-0.3,0.1c-0.3,0.1-0.4,0-0.6-0.3c-0.3-0.5-0.8-0.7-1.4-0.7c-1,0-1.6,0.7-1.6,1.4c0,0.7,0.6,1.1,1.2,1.3
		l1.3,0.4c1.6,0.5,2.1,1.5,2.1,2.5c0,1.6-1.4,2.6-3.1,2.6C398.8,375.3,397.5,374.8,397,373.7z"/>
	<path class="st0" d="M405.4,374.7v-8c0-0.3,0.2-0.5,0.5-0.5h0.4c0.3,0,0.5,0.2,0.5,0.5v1.4c0.5-1.4,1.8-2.1,3-2.1
		c1.1,0,2.4,0.4,3.1,2.1c0.7-1.7,2.1-2.1,3.2-2.1c2.1,0,3.5,1.1,3.5,4.1v4.6c0,0.3-0.2,0.5-0.5,0.5h-0.4c-0.3,0-0.5-0.2-0.5-0.5
		v-4.6c0-2.2-1.1-2.9-2.2-2.9c-0.9,0-2.7,0.6-2.8,3.5v4c0,0.3-0.2,0.5-0.5,0.5h-0.4c-0.3,0-0.5-0.2-0.5-0.5v-4.6
		c0-2.2-1.1-2.9-2.2-2.9c-1,0-2.7,0.7-2.8,3.6v3.9c0,0.3-0.2,0.5-0.5,0.5h-0.4C405.6,375.2,405.4,375,405.4,374.7z"/>
</g>
<g>
	<circle class="st1" cx="320.6" cy="166.5" r="10.9"/>
	<g>
		<line class="st2" x1="323.7" y1="163.4" x2="317.5" y2="169.6"/>
		<line class="st2" x1="317.5" y1="163.4" x2="323.7" y2="169.6"/>
	</g>
</g>
<g>
	<circle class="st1" cx="320.6" cy="228.5" r="10.9"/>
	<g>
		<line class="st2" x1="323.7" y1="225.4" x2="317.5" y2="231.6"/>
		<line class="st2" x1="317.5" y1="225.4" x2="323.7" y2="231.6"/>
	</g>
</g>
<g>
	<circle class="st1" cx="320.6" cy="290.5" r="10.9"/>
	<g>
		<line class="st2" x1="323.7" y1="287.4" x2="317.5" y2="293.6"/>
		<line class="st2" x1="317.5" y1="287.4" x2="323.7" y2="293.6"/>
	</g>
</g>
<g>
	<circle class="st1" cx="320.6" cy="330" r="10.9"/>
	<g>
		<line class="st2" x1="323.7" y1="326.9" x2="317.5" y2="333.1"/>
		<line class="st2" x1="317.5" y1="326.9" x2="323.7" y2="333.1"/>
	</g>
</g>
<g>
	<circle class="st1" cx="320.6" cy="369.5" r="10.9"/>
	<g>
		<line class="st2" x1="323.7" y1="366.4" x2="317.5" y2="372.6"/>
		<line class="st2" x1="317.5" y1="366.4" x2="323.7" y2="372.6"/>
	</g>
</g>
<g id="Bottom_Right_2_">
	<circle class="st3" cx="62.9" cy="163.7" r="10.9"/>
	<polyline class="st4" points="58.9,164.1 61.3,166.5 66.9,160.9 	"/>
</g>
<g id="Bottom_Right_1_">
	<circle class="st3" cx="62.9" cy="204.1" r="10.9"/>
	<polyline class="st4" points="58.9,204.5 61.3,206.9 66.9,201.3 	"/>
</g>
<g id="Bottom_Right_3_">
	<circle class="st3" cx="62.9" cy="244.5" r="10.9"/>
	<polyline class="st4" points="58.9,244.9 61.3,247.3 66.9,241.7 	"/>
</g>
<g id="Bottom_Right_4_">
	<circle class="st3" cx="62.9" cy="284.9" r="10.9"/>
	<polyline class="st4" points="58.9,285.3 61.3,287.8 66.9,282.1 	"/>
</g>
<g id="Bottom_Right_5_">
	<circle class="st3" cx="62.9" cy="325.4" r="10.9"/>
	<polyline class="st4" points="58.9,325.8 61.3,328.2 66.9,322.6 	"/>
</g>
<line class="st5" x1="35.3" y1="115.3" x2="518.7" y2="115.3"/>
</svg>
